<svg width="266" height="70" viewBox="0 0 266 70" fill="none" xmlns="http://www.w3.org/2000/svg">
<g clip-path="url(#clip0_100_2)">
<path d="M238.949 56.8035C250.21 56.8035 259.361 47.6969 259.361 36.4888C259.361 25.2807 250.21 16.1741 238.949 16.1741C227.687 16.1741 218.537 25.2807 218.537 36.4888C218.537 47.6969 227.687 56.8035 238.949 56.8035ZM238.949 21.0776C247.395 21.0776 254.258 27.9076 254.258 36.3137C254.258 44.7198 247.395 51.5497 238.949 51.5497C230.503 51.5497 223.64 44.7198 223.64 36.3137C223.64 27.9076 230.503 21.0776 238.949 21.0776Z" fill="#EAAD5F"/>
<path d="M265.343 36.4888C265.343 29.4837 262.528 22.8289 257.601 17.7502C255.489 15.6487 253.202 14.0725 250.738 12.8466C250.034 12.4964 249.154 12.8466 248.802 13.5471C248.451 14.2476 248.802 15.1233 249.506 15.4735C251.794 16.5243 253.905 18.1004 255.665 19.8517C260.064 24.2299 262.528 30.1842 262.528 36.4888C262.528 42.7933 260.064 48.7476 255.665 53.1258C251.266 57.504 245.283 59.9558 238.949 59.9558C232.614 59.9558 226.631 57.504 222.232 53.1258C221.704 52.6004 220.824 52.6004 220.121 53.1258C219.593 53.6512 219.593 54.5268 220.121 55.2273C224.872 59.9558 230.854 62.5827 237.541 62.9329V67.6614C237.541 68.537 238.245 69.0624 238.949 69.0624C239.652 69.0624 240.356 68.3619 240.356 67.6614V62.9329C246.867 62.5827 253.026 59.9558 257.777 55.2273C262.704 50.1487 265.343 43.4938 265.343 36.4888Z" fill="#747474"/>
<path d="M38.3512 3.5647H3.15867C1.575 3.5647 0.343262 4.79059 0.343262 6.36673C0.343262 7.94287 1.575 9.16876 3.15867 9.16876H17.5876V55.052C17.5876 56.6281 18.8194 57.854 20.403 57.854H21.1069C22.6905 57.854 23.9223 56.6281 23.9223 55.052V9.16876H38.3512C39.9349 9.16876 41.1666 7.94287 41.1666 6.36673C41.1666 4.79059 39.9349 3.5647 38.3512 3.5647Z" fill="#747474"/>
<path d="M69.1445 16.5242C68.4406 16.5242 67.7368 16.5242 67.0329 16.5242C64.3935 16.5242 62.106 17.2247 59.9944 18.6257C57.8829 20.0267 55.9473 22.1282 54.5396 24.7551H54.1876L53.6597 19.6765C53.4838 18.2754 52.428 17.2247 51.0203 17.2247C49.6126 17.2247 48.3809 18.4506 48.3809 19.8516V54.7018C48.3809 56.4531 49.7886 57.8541 51.5482 57.8541C53.3078 57.8541 54.7155 56.4531 54.7155 54.7018V35.9633C54.7155 31.9353 55.9473 28.6079 58.2348 25.981C60.5223 23.3541 63.3377 21.9531 66.681 21.9531C67.2089 21.9531 67.9127 21.9531 68.6166 22.1282C70.0243 22.3034 71.256 21.2526 71.608 19.8516V19.5013C71.7839 17.9252 70.7281 16.5242 69.1445 16.5242Z" fill="#747474"/>
<path d="M95.0114 16.5242C92.5479 16.5242 90.2604 16.8744 87.7969 17.3998C86.2132 17.7501 84.8055 18.2754 83.3978 18.8008C82.1661 19.3262 81.4622 20.7272 81.9901 22.1282V22.3034C82.518 23.5292 83.9257 24.2298 85.3334 23.7044C88.6767 22.3034 91.844 21.6029 94.6594 21.6029C97.6508 21.6029 99.9383 22.3034 101.346 23.8795C102.754 25.4556 103.458 27.7323 103.458 30.8846V33.3364L96.595 33.5115C83.3978 33.8617 76.8872 38.2399 76.8872 46.4709C76.8872 50.3237 78.1189 53.3008 80.4065 55.4024C82.694 57.5039 85.8613 58.5546 89.9085 58.5546C92.8998 58.5546 95.5393 58.0293 97.4749 57.1536C99.5864 56.278 101.522 54.5267 103.634 51.8998H103.985L104.865 55.7526C105.041 56.9785 106.097 57.679 107.329 57.679C108.736 57.679 109.792 56.6282 109.792 55.2272V30.0089C109.792 25.2805 108.561 21.778 106.273 19.6765C103.458 17.5749 99.9383 16.5242 95.0114 16.5242ZM103.106 41.3922C103.106 45.245 102.05 48.047 99.7624 50.1485C97.4749 52.2501 94.4835 53.3008 90.6123 53.3008C88.1488 53.3008 86.2132 52.7754 84.9815 51.5496C83.5738 50.3237 82.8699 48.7475 82.8699 46.4709C82.8699 43.6688 83.9257 41.5673 86.2132 40.1663C88.3248 38.7653 92.02 38.0648 96.771 37.8897L102.93 37.7145V41.3922H103.106Z" fill="#747474"/>
<path d="M149.208 17.0496C147.8 17.0496 146.745 17.7501 146.393 18.976C141.642 31.7603 138.65 39.9913 137.243 44.0192C135.835 48.2222 134.955 50.8491 134.603 52.075H134.251C133.899 50.3237 132.668 46.6461 130.732 41.042L122.638 18.976C122.11 17.7501 121.054 16.8745 119.822 16.8745C117.711 16.8745 116.127 18.976 117.007 21.0776L129.676 54.3517C130.38 56.4532 132.316 57.6791 134.603 57.6791C136.891 57.6791 138.65 56.2781 139.53 54.3517L152.199 21.2527C152.903 19.3263 151.496 17.0496 149.208 17.0496Z" fill="#747474"/>
<path d="M175.954 16.3489C170.499 16.3489 166.1 18.2753 162.933 22.1281C159.765 25.9809 158.006 31.2347 158.006 37.7144C158.006 44.1941 159.765 49.2727 163.285 52.9504C166.804 56.6281 171.555 58.3793 177.538 58.3793C180.353 58.3793 182.641 58.2042 184.576 57.854C185.984 57.5037 187.568 57.1534 188.975 56.4529C190.031 56.1027 190.735 55.0519 190.735 54.0012C190.735 52.2499 188.975 51.024 187.216 51.5494C184.048 52.6001 180.881 52.9504 177.538 52.9504C173.315 52.9504 170.147 51.7245 167.86 49.2727C165.572 46.821 164.341 43.1433 164.165 38.4149H190.383C191.615 38.4149 192.671 37.3641 192.671 36.1382V34.5621C192.671 29.1331 191.263 24.5798 188.271 21.2524C185.28 17.925 181.057 16.3489 175.954 16.3489ZM164.692 33.5113C165.044 29.8336 166.276 26.8565 168.212 24.755C170.147 22.6534 172.787 21.6027 176.13 21.6027C179.297 21.6027 181.761 22.6534 183.52 24.755C185.28 26.8565 186.16 29.8336 186.16 33.6864H164.692V33.5113Z" fill="#747474"/>
<path d="M206.22 0.0622559C204.46 0.0622559 203.052 1.46327 203.052 3.21454V54.7018C203.052 56.4531 204.46 57.8541 206.22 57.8541C207.979 57.8541 209.387 56.4531 209.387 54.7018V3.21454C209.387 1.46327 207.979 0.0622559 206.22 0.0622559Z" fill="#747474"/>
</g>
<defs>
<clipPath id="clip0_100_2">
<rect width="265" height="69" fill="white" transform="translate(0.343262 0.0622559)"/>
</clipPath>
</defs>
</svg>
