<svg width="25" height="21" viewBox="0 0 25 21" fill="none" xmlns="http://www.w3.org/2000/svg">
<g clip-path="url(#clip0_2808_6316)">
<path d="M12.9431 -0.000244141C12.9431 -0.000244141 12.5567 4.55121 8.93657 7.78091C5.72007 10.0725 5.20497 11.2904 5.00529 13.0186C4.80417 14.7543 5.02266 18.1094 8.64429 20.3984C8.64429 20.3984 7.34206 17.6131 10.5499 15.3253C13.6087 13.1439 13.231 11.5943 13.1847 11.4512C13.2223 11.5727 13.9472 13.8504 15.5345 15.1455C17.1623 16.4736 16.9235 18.8221 15.384 20.9998C15.384 20.9998 20.3904 18.1676 20.8346 14.3707C21.5522 8.18858 15.2726 1.00373 12.9431 -0.000244141Z" fill="#6B6B6B"/>
</g>
<defs>
<clipPath id="clip0_2808_6316">
<rect width="24" height="21" fill="white" transform="translate(0.921875)"/>
</clipPath>
</defs>
</svg>
