<svg width="20" height="20" viewBox="0 0 20 20" fill="none" xmlns="http://www.w3.org/2000/svg">
<g clip-path="url(#clip0_2_337)">
<path d="M2.01353 13.4174H2.80056V10.5009C2.80056 8.63662 3.54643 6.96126 4.9008 5.78341C5.37232 5.37335 5.90776 5.03127 6.49076 4.76226V4.19179C6.49076 2.34299 7.99488 0.838867 9.84368 0.838867C11.6925 0.838867 13.1966 2.34299 13.1966 4.19179V4.76226C13.7797 5.03127 14.3151 5.37335 14.7866 5.78341C16.141 6.96126 16.8868 8.63662 16.8868 10.5009V13.4174H17.6738V18.5096H16.8868V19.8389H12.7403H6.94706H2.80056V18.5096H2.01358V13.4174H2.01353ZM11.7284 4.19179C11.7284 3.15253 10.8829 2.30702 9.84363 2.30702C8.80433 2.30702 7.95882 3.15253 7.95882 4.19179V4.26328C8.5612 4.12464 9.19368 4.05295 9.84363 4.05295C10.4936 4.05295 11.1261 4.12464 11.7284 4.26328V4.19179ZM9.84363 5.5211C6.56114 5.5211 4.26862 7.56888 4.26862 10.5009V10.6001H15.4186V10.5009C15.4186 7.56888 13.1262 5.5211 9.84363 5.5211ZM15.4186 18.3707V12.0683H10.5777V14.1118H12.7402V18.3708H15.4186V18.3707ZM11.2721 18.3707V15.5799H8.41517V18.3707H11.2721ZM6.94701 18.3707V14.1117H9.10955V12.0682H4.26862V18.3707H6.94701V18.3707Z" fill="#A8A8A8"/>
</g>
<defs>
<clipPath id="clip0_2_337">
<rect width="19" height="19" fill="white" transform="matrix(-1 0 0 1 19.3438 0.838867)"/>
</clipPath>
</defs>
</svg>
