<svg width="22" height="21" viewBox="0 0 22 21" fill="none" xmlns="http://www.w3.org/2000/svg">
<path d="M21 10.5H17V9.5H18.5C18.7652 9.5 19.0196 9.39464 19.2071 9.20711C19.3946 9.01957 19.5 8.76522 19.5 8.5C19.5 8.23478 19.3946 7.98043 19.2071 7.79289C19.0196 7.60536 18.7652 7.5 18.5 7.5H15V10.5H12V3C12 2.73478 12.1054 2.48043 12.2929 2.29289C12.4804 2.10536 12.7348 2 13 2C13.2652 2 13.5196 2.10536 13.7071 2.29289C13.8946 2.48043 14 2.73478 14 3V3.5C14 3.76522 14.1054 4.01957 14.2929 4.20711C14.4804 4.39464 14.7348 4.5 15 4.5C15.2652 4.5 15.5196 4.39464 15.7071 4.20711C15.8946 4.01957 16 3.76522 16 3.5V3C16 2.20435 15.6839 1.44129 15.1213 0.87868C14.5587 0.31607 13.7956 0 13 0C12.2044 0 11.4413 0.31607 10.8787 0.87868C10.3161 1.44129 10 2.20435 10 3V10.5H7V7.5H3.5C3.23478 7.5 2.98043 7.60536 2.79289 7.79289C2.60536 7.98043 2.5 8.23478 2.5 8.5C2.5 8.76522 2.60536 9.01957 2.79289 9.20711C2.98043 9.39464 3.23478 9.5 3.5 9.5H5V10.5H1C0.734784 10.5 0.48043 10.6054 0.292893 10.7929C0.105357 10.9804 0 11.2348 0 11.5C0 11.7652 0.105357 12.0196 0.292893 12.2071C0.48043 12.3946 0.734784 12.5 1 12.5H2V16C2 17.3261 2.52678 18.5979 3.46447 19.5355C4.40215 20.4732 5.67392 21 7 21H15C16.3261 21 17.5979 20.4732 18.5355 19.5355C19.4732 18.5979 20 17.3261 20 16V12.5H21C21.2652 12.5 21.5196 12.3946 21.7071 12.2071C21.8946 12.0196 22 11.7652 22 11.5C22 11.2348 21.8946 10.9804 21.7071 10.7929C21.5196 10.6054 21.2652 10.5 21 10.5Z" fill="#6B6B6B"/>
</svg>
