<svg width="17" height="17" viewBox="0 0 17 17" fill="none" xmlns="http://www.w3.org/2000/svg">
<g clip-path="url(#clip0_2808_6335)">
<path d="M8.60366 9.20762C8.80427 9.05425 9.08706 8.89109 9.41219 8.74324C9.99743 8.47453 10.7152 8.24509 11.3532 8.08745C11.6722 8.00862 11.9722 7.94696 12.2243 7.90616C12.4752 7.86475 12.6831 7.84546 12.7936 7.84606H12.7966L13.023 7.85157L13.1758 7.68443C13.7076 7.10287 14.2272 6.78449 14.607 6.60964C14.7965 6.52222 14.9511 6.47098 15.0535 6.4425C15.1051 6.42838 15.1431 6.41978 15.1664 6.4152C15.1774 6.41275 15.1854 6.41148 15.1891 6.41059L15.8952 6.31151L15.556 5.68211C15.0124 4.67543 14.0904 3.6117 12.815 2.78753C11.5403 1.96429 9.90665 1.38795 7.97489 1.38855C7.75466 1.38855 7.52951 1.39897 7.3013 1.41431L7.21849 0.881836L6.60377 0.978125L6.68721 1.50937C4.67875 2.00689 3.1611 3.03167 2.09737 4.22147C1.54096 4.8432 1.10666 5.50909 0.782133 6.1701C0.458203 6.83111 0.244109 7.48746 0.130621 8.09541L0 8.79846L0.700586 8.6776C0.703043 8.6773 0.787678 8.66442 0.937391 8.66442C1.30854 8.66501 2.0735 8.74048 3.009 9.27509L3.20224 9.38519L3.41268 9.31526C3.48749 9.29043 3.60466 9.26035 3.74823 9.23245C4.18197 9.14719 4.85493 9.07876 5.57633 9.07939C6.30451 9.07849 7.0891 9.14931 7.74061 9.32141L8.66814 15.2477H1.29316V16.1181H16.9638V15.2477H9.54902L8.60366 9.20762ZM12.2752 3.62368C13.1776 4.20494 13.8806 4.92973 14.3603 5.63181C14.3063 5.65419 14.2499 5.67846 14.1904 5.70575C13.8248 5.87383 13.3733 6.14131 12.9033 6.55754C12.8125 6.41461 12.7076 6.25666 12.5886 6.08639C12.1107 5.40423 11.4144 4.53405 10.5427 3.72797C10.0305 3.255 9.45754 2.80413 8.83183 2.42774C10.1864 2.56513 11.3372 3.01912 12.2752 3.62368ZM3.07893 8.12211C3.07338 8.14296 3.0691 8.16292 3.06418 8.18317C2.33843 7.84118 1.70415 7.71816 1.25329 7.68227C1.35635 7.33629 1.4962 6.97375 1.67533 6.60811C2.10415 5.73427 2.75622 4.84353 3.65985 4.0948C4.22848 3.62368 4.89656 3.20771 5.67561 2.88415C5.45049 3.14609 5.24131 3.41938 5.04744 3.69942C4.30578 4.77447 3.78927 5.94219 3.45309 6.89366C3.28445 7.36969 3.16173 7.79144 3.07893 8.12211ZM5.57627 8.08439C5.05421 8.08439 4.56042 8.1163 4.13711 8.16657C3.97886 8.18563 3.83038 8.20708 3.69295 8.23098C3.73714 8.05859 3.79173 7.86044 3.85983 7.64146C4.09541 6.88015 4.47943 5.87595 5.03522 4.8932C5.50392 4.06286 6.09649 3.25128 6.81607 2.60654L7.70558 8.29108C7.01117 8.1402 6.27008 8.08529 5.57627 8.08439ZM8.32027 8.19785L7.41605 2.4216C8.11109 2.68938 8.76748 3.08473 9.36438 3.54486C10.3392 4.29512 11.1569 5.21159 11.7433 5.9827C11.9985 6.31855 12.2102 6.62684 12.3721 6.88048C12.3599 6.88201 12.3476 6.88323 12.3347 6.88479C12.0359 6.92251 11.6765 6.98875 11.2838 7.08079C10.6956 7.21852 10.0373 7.41296 9.42507 7.6562C9.11897 7.77799 8.82512 7.91203 8.55522 8.05989C8.47423 8.10464 8.39634 8.15093 8.32027 8.19785Z" fill="#737373"/>
<path d="M13.0437 12.6445H11.4033V13.2663H13.0437V12.6445Z" fill="#737373"/>
<path d="M16.9997 12.6445H15.3594V13.2663H16.9997V12.6445Z" fill="#737373"/>
<path d="M14.9734 10.2729H13.333V10.8947H14.9734V10.2729Z" fill="#737373"/>
<path d="M4.77107 12.6479L4.75879 13.27L6.39919 13.3025L6.41144 12.6808L4.77107 12.6479Z" fill="#737373"/>
<path d="M2.79256 10.2366L2.78027 10.8583L4.42004 10.8908L4.43293 10.2691L2.79256 10.2366Z" fill="#737373"/>
</g>
<defs>
<clipPath id="clip0_2808_6335">
<rect width="17" height="17" fill="white"/>
</clipPath>
</defs>
</svg>
