<svg width="22" height="20" viewBox="0 0 22 20" fill="none" xmlns="http://www.w3.org/2000/svg">
<path d="M18.6667 7.17128V2.44794H19.3333V8.50461V8.64261L19.4307 8.74061L21 10.3093L20.5287 10.7813L19.902 10.1546L19.3333 9.58461V10.3899V10.7813C19.3333 11.2079 19.1733 11.5966 18.9093 11.8919L18.71 12.1139L18.9087 12.3366C19.152 12.6079 19.3067 12.9586 19.33 13.3446L19.3333 13.4526V14.1146C19.3333 14.5413 19.1733 14.9299 18.9093 15.2253L18.71 15.4473L18.9087 15.6699C19.152 15.9413 19.3067 16.2919 19.33 16.6779L19.3333 16.7859V17.4479C19.3333 18.3339 18.642 19.0586 17.7693 19.1113L17.662 19.1146H4.33335C3.44735 19.1146 2.72267 18.4233 2.67 17.5506L2.66667 17.4426V16.7813C2.66667 16.3539 2.82667 15.9653 3.09068 15.6699L3.29001 15.4479L3.09068 15.2253C2.848 14.9539 2.69333 14.6033 2.67 14.2173L2.66667 14.1093V13.4479C2.66667 13.0206 2.82667 12.6319 3.09068 12.3366L3.29001 12.1146L3.09068 11.8919C2.85467 11.6279 2.70133 11.2886 2.672 10.9139L2.66667 10.7746V10.3899V9.58528L2.09733 10.1546L1.47133 10.7813L1 10.3099L9.82135 1.48794C10.4447 0.86461 11.44 0.83861 12.094 1.40928L12.182 1.49194L18.0973 7.40728L18.6667 7.97594V7.17128ZM8.00001 16.1139V15.7806H7.66668L4.33335 15.7813C3.82001 15.7813 3.39801 16.1673 3.34001 16.6646L3.33868 16.6746L3.33801 16.6839L3.33401 16.7619L3.33335 16.7713V16.7813V17.4479C3.33335 17.9606 3.71935 18.3833 4.21735 18.4413L4.22668 18.4419L4.23601 18.4426L4.31401 18.4473L4.32335 18.4479H4.33335H7.66668H8.00001V18.1146V16.1139ZM13.3333 12.1146V11.7813H13H9.00001H8.66668V12.1146V18.1146V18.4479H9.00001H13H13.3333V18.1146V12.1146ZM17.686 15.7813H17.676H17.6667L14.3333 15.7806H14V16.1139V18.1146V18.4479H14.3333H17.6667C18.1793 18.4479 18.602 18.0613 18.66 17.5639L18.6607 17.5546L18.6613 17.5446L18.666 17.4666L18.6667 17.4573V17.4479V16.7813C18.6667 16.2679 18.2807 15.8453 17.7827 15.7879L17.7733 15.7866L17.7633 15.7859L17.686 15.7813ZM17.686 12.4479H17.676H17.6667L14.3333 12.4473H14V12.7806V14.7806V15.1139H14.3333L17.6667 15.1146C18.1793 15.1146 18.602 14.7279 18.66 14.2306L18.6607 14.2213L18.6613 14.2113L18.666 14.1333L18.6667 14.1239V14.1146V13.4479C18.6667 12.9346 18.2807 12.5119 17.7827 12.4546L17.7733 12.4533L17.7633 12.4526L17.686 12.4479ZM8.00001 12.7806V12.4473H7.66668L4.33335 12.4479C3.82001 12.4479 3.39801 12.8339 3.34001 13.3313L3.33868 13.3413L3.33801 13.3506L3.33401 13.4286L3.33335 13.4379V13.4479V14.1146C3.33335 14.6273 3.71935 15.0499 4.21735 15.1079L4.22668 15.1086L4.23601 15.1093L4.31401 15.1139L4.32335 15.1146H4.33335L7.66668 15.1139H8.00001V14.7806V12.7806ZM3.34001 9.99794L3.33868 10.0079L3.33801 10.0173L3.33401 10.0953L3.33335 10.1046V10.1146V10.7813C3.33335 11.2939 3.71935 11.7166 4.21735 11.7746L4.22668 11.7753L4.23601 11.7759L4.31401 11.7806L4.32335 11.7813H4.33335L7.84535 11.7806H8.03735L8.13335 11.6139C8.29468 11.3366 8.58401 11.1439 8.91935 11.1173L9.00601 11.1146H13C13.3693 11.1146 13.6927 11.3146 13.866 11.6146L13.9627 11.7806H14.1547L17.6667 11.7813C18.1793 11.7813 18.602 11.3946 18.66 10.8973L18.6607 10.8879L18.6613 10.8779L18.666 10.7999L18.6667 10.7906V10.7813V10.1146C18.6667 9.56195 18.2187 9.11461 17.6667 9.11461H4.33335C3.82001 9.11461 3.39801 9.50061 3.34001 9.99794ZM15.626 5.87794L15.5287 5.78061H15.3907H6.60935H6.47135L6.37335 5.87794L4.37335 7.87794L3.80468 8.44728H4.60935H17.3907H18.1953L17.626 7.87794L15.626 5.87794ZM10.3867 1.87661L10.3787 1.88328L10.3707 1.88994L10.308 1.94528L10.3 1.95194L10.2927 1.95928L7.70668 4.54461L7.13735 5.11394H7.94268H14.0573H14.862L14.2927 4.54461L11.7067 1.95928C11.346 1.59861 10.7793 1.57128 10.3867 1.87661Z" fill="#737373"/>
<path d="M18.6667 7.17128V2.44794H19.3333V8.50461V8.64261L19.4307 8.74061L21 10.3093L20.5287 10.7813L19.902 10.1546L19.3333 9.58461V10.3899V10.7813C19.3333 11.2079 19.1733 11.5966 18.9093 11.8919L18.71 12.1139L18.9087 12.3366C19.152 12.6079 19.3067 12.9586 19.33 13.3446L19.3333 13.4526V14.1146C19.3333 14.5413 19.1733 14.9299 18.9093 15.2253L18.71 15.4473L18.9087 15.6699C19.152 15.9413 19.3067 16.2919 19.33 16.6779L19.3333 16.7859V17.4479C19.3333 18.3339 18.642 19.0586 17.7693 19.1113L17.662 19.1146H4.33335C3.44735 19.1146 2.72267 18.4233 2.67 17.5506L2.66667 17.4426V16.7813C2.66667 16.3539 2.82667 15.9653 3.09068 15.6699L3.29001 15.4479L3.09068 15.2253C2.848 14.9539 2.69333 14.6033 2.67 14.2173L2.66667 14.1093V13.4479C2.66667 13.0206 2.82667 12.6319 3.09068 12.3366L3.29001 12.1146L3.09068 11.8919C2.85467 11.6279 2.70133 11.2886 2.672 10.9139L2.66667 10.7746V10.3899V9.58528L2.09733 10.1546L1.47133 10.7813L1 10.3099L9.82135 1.48794C10.4447 0.86461 11.44 0.83861 12.094 1.40928L12.182 1.49194L18.0973 7.40728L18.6667 7.97594V7.17128ZM8.00001 16.1139V15.7806H7.66668L4.33335 15.7813C3.82001 15.7813 3.39801 16.1673 3.34001 16.6646L3.33868 16.6746L3.33801 16.6839L3.33401 16.7619L3.33335 16.7713V16.7813V17.4479C3.33335 17.9606 3.71935 18.3833 4.21735 18.4413L4.22668 18.4419L4.23601 18.4426L4.31401 18.4473L4.32335 18.4479H4.33335H7.66668H8.00001V18.1146V16.1139ZM13.3333 12.1146V11.7813H13H9.00001H8.66668V12.1146V18.1146V18.4479H9.00001H13H13.3333V18.1146V12.1146ZM17.686 15.7813H17.676H17.6667L14.3333 15.7806H14V16.1139V18.1146V18.4479H14.3333H17.6667C18.1793 18.4479 18.602 18.0613 18.66 17.5639L18.6607 17.5546L18.6613 17.5446L18.666 17.4666L18.6667 17.4573V17.4479V16.7813C18.6667 16.2679 18.2807 15.8453 17.7827 15.7879L17.7733 15.7866L17.7633 15.7859L17.686 15.7813ZM17.686 12.4479H17.676H17.6667L14.3333 12.4473H14V12.7806V14.7806V15.1139H14.3333L17.6667 15.1146C18.1793 15.1146 18.602 14.7279 18.66 14.2306L18.6607 14.2213L18.6613 14.2113L18.666 14.1333L18.6667 14.1239V14.1146V13.4479C18.6667 12.9346 18.2807 12.5119 17.7827 12.4546L17.7733 12.4533L17.7633 12.4526L17.686 12.4479ZM8.00001 12.7806V12.4473H7.66668L4.33335 12.4479C3.82001 12.4479 3.39801 12.8339 3.34001 13.3313L3.33868 13.3413L3.33801 13.3506L3.33401 13.4286L3.33335 13.4379V13.4479V14.1146C3.33335 14.6273 3.71935 15.0499 4.21735 15.1079L4.22668 15.1086L4.23601 15.1093L4.31401 15.1139L4.32335 15.1146H4.33335L7.66668 15.1139H8.00001V14.7806V12.7806ZM3.34001 9.99794L3.33868 10.0079L3.33801 10.0173L3.33401 10.0953L3.33335 10.1046V10.1146V10.7813C3.33335 11.2939 3.71935 11.7166 4.21735 11.7746L4.22668 11.7753L4.23601 11.7759L4.31401 11.7806L4.32335 11.7813H4.33335L7.84535 11.7806H8.03735L8.13335 11.6139C8.29468 11.3366 8.58401 11.1439 8.91935 11.1173L9.00601 11.1146H13C13.3693 11.1146 13.6927 11.3146 13.866 11.6146L13.9627 11.7806H14.1547L17.6667 11.7813C18.1793 11.7813 18.602 11.3946 18.66 10.8973L18.6607 10.8879L18.6613 10.8779L18.666 10.7999L18.6667 10.7906V10.7813V10.1146C18.6667 9.56195 18.2187 9.11461 17.6667 9.11461H4.33335C3.82001 9.11461 3.39801 9.50061 3.34001 9.99794ZM15.626 5.87794L15.5287 5.78061H15.3907H6.60935H6.47135L6.37335 5.87794L4.37335 7.87794L3.80468 8.44728H4.60935H17.3907H18.1953L17.626 7.87794L15.626 5.87794ZM10.3867 1.87661L10.3787 1.88328L10.3707 1.88994L10.308 1.94528L10.3 1.95194L10.2927 1.95928L7.70668 4.54461L7.13735 5.11394H7.94268H14.0573H14.862L14.2927 4.54461L11.7067 1.95928C11.346 1.59861 10.7793 1.57128 10.3867 1.87661Z" stroke="#737373" stroke-width="0.5"/>
</svg>
