<svg width="51" height="48" viewBox="0 0 51 48" fill="none" xmlns="http://www.w3.org/2000/svg">
<g clip-path="url(#clip0_112_1685)">
<path d="M38.7897 0.547852H12.8968C6.20041 0.547852 0.843262 6.02358 0.843262 12.8682V34.9993C0.843262 41.844 6.20041 47.3197 12.8968 47.3197H38.7897C44.5933 47.3197 49.504 43.2129 50.62 37.509C50.8433 36.5964 50.8433 35.9119 50.8433 34.9993V12.8682C50.8433 6.02358 45.2629 0.547852 38.7897 0.547852ZM12.8968 4.65465H38.7897C43.254 4.65465 47.0486 8.53329 47.0486 13.0964V30.208L38.12 22.2226C37.4504 21.5381 36.3343 21.5381 35.4415 22.2226L20.9325 33.1741L13.3433 26.3294C12.4504 25.6449 11.3343 25.6449 10.6647 26.3294L4.6379 31.3488V12.8682C4.86112 8.30513 8.43255 4.65465 12.8968 4.65465Z" fill="#747474"/>
</g>
<defs>
<clipPath id="clip0_112_1685">
<rect width="50" height="47" fill="white" transform="translate(0.843262 0.547852)"/>
</clipPath>
</defs>
</svg>
