<svg width="26" height="20" viewBox="0 0 26 20" fill="none" xmlns="http://www.w3.org/2000/svg">
<path d="M23.383 19.673C23.9176 19.6802 24.435 19.4841 24.8306 19.1244L17.8197 12.0863L17.3398 12.4366C16.8152 12.8248 16.3886 13.1276 16.0602 13.3452C15.6467 13.6071 15.2098 13.8299 14.7549 14.0106C14.2758 14.223 13.7593 14.3383 13.2353 14.3497H13.2129C12.689 14.3383 12.1725 14.223 11.6933 14.0106C11.2384 13.83 10.8014 13.6072 10.3881 13.3452C10.0607 13.1319 9.63417 12.8291 9.10844 12.4366L8.62857 12.0847L1.61768 19.1228C2.01326 19.4825 2.53066 19.6786 3.06528 19.6715L23.383 19.673Z" fill="#EAAD5F"/>
<path d="M2.24595 7.65263C1.73002 7.31111 1.25923 6.90587 0.844727 6.44653L0.844727 17.1636L7.04944 10.9589C5.80818 10.0877 4.20701 8.9856 2.24595 7.65263Z" fill="#EAAD5F"/>
<path d="M24.2099 7.65243C22.3213 8.93208 20.7159 10.0326 19.3936 10.9539L25.5951 17.1571V6.43994C25.1838 6.89839 24.7187 7.30551 24.2099 7.65243Z" fill="#EAAD5F"/>
<path d="M23.3894 0.227223H3.05411C2.74377 0.209783 2.43372 0.266057 2.14931 0.391443C1.8649 0.516828 1.61421 0.707764 1.41775 0.948628C1.02396 1.46513 0.821571 2.10226 0.845105 2.75134C0.888608 3.44732 1.15501 4.11081 1.6049 4.64362C2.05078 5.26289 2.59679 5.80349 3.22046 6.24319C3.53291 6.46499 4.47665 7.12349 6.05169 8.21866C6.90106 8.8105 7.64166 9.32555 8.27669 9.77023L9.66991 10.7492L9.87626 10.8963L10.257 11.1715C10.5566 11.3847 10.8051 11.5601 11.0023 11.6977C11.1996 11.8353 11.439 11.9856 11.7206 12.1488C11.9732 12.3014 12.2413 12.4269 12.5203 12.5231C12.7425 12.6016 12.9758 12.6437 13.2113 12.6479H13.2385C13.4741 12.6437 13.7074 12.6015 13.9296 12.5231C14.2086 12.4269 14.4767 12.3015 14.7293 12.1488C15.0098 11.9824 15.2492 11.8321 15.4475 11.6977C15.6459 11.5633 15.8944 11.3879 16.1929 11.1715L16.5736 10.8963L16.78 10.7492L18.178 9.77344L23.2294 6.24479C23.8905 5.78428 24.4614 5.20632 24.9138 4.53965C25.3476 3.92708 25.5837 3.19645 25.5904 2.44582C25.5851 1.8621 25.352 1.30353 24.9409 0.889116C24.5297 0.474704 23.9731 0.237206 23.3894 0.227223Z" fill="#EAAD5F"/>
</svg>
