<svg width="19" height="19" viewBox="0 0 19 19" fill="none" xmlns="http://www.w3.org/2000/svg">
<path d="M13.828 12.3173L10.7291 9.21843L13.828 6.11958C14.2446 5.70293 14.2446 5.02587 13.828 4.60921C13.4113 4.19256 12.7343 4.19256 12.3176 4.60921L9.21875 7.70806L6.1199 4.60921C5.70325 4.19256 5.02619 4.19256 4.60954 4.60921C4.19288 5.02587 4.19288 5.70293 4.60954 6.11958L7.70839 9.21843L4.60954 12.3173C4.19288 12.7339 4.19288 13.411 4.60954 13.8276C5.02619 14.2443 5.70325 14.2443 6.1199 13.8276L9.21875 10.7288L12.3176 13.8276C12.7343 14.2443 13.4113 14.2443 13.828 13.8276C14.2186 13.385 14.2446 12.7339 13.828 12.3173Z" fill="white"/>
</svg>
