<svg width="19" height="19" viewBox="0 0 19 19" fill="none" xmlns="http://www.w3.org/2000/svg">
<path d="M9.07283 2.35893C9.4913 2.35893 9.82829 2.01824 9.82829 1.60348V0.755451C9.82829 0.33699 9.4913 0 9.07283 0C8.65437 0 8.31738 0.340694 8.31738 0.755451V1.59978C8.31738 2.02194 8.65437 2.35893 9.07283 2.35893Z" fill="#4D4D4D"/>
<path d="M16.5387 9.78409H17.3867C17.8051 9.78409 18.1421 9.4434 18.1421 9.02864C18.1421 8.61389 17.8051 8.27319 17.3867 8.27319H16.5387C16.1202 8.27319 15.7832 8.61389 15.7832 9.02864C15.7832 9.4434 16.1239 9.78409 16.5387 9.78409Z" fill="#4D4D4D"/>
<path d="M1.60719 9.78409C2.02565 9.78409 2.36264 9.4434 2.36264 9.02864C2.36264 8.61389 2.02565 8.27319 1.60719 8.27319H0.755451C0.33699 8.27319 0 8.61389 0 9.02864C0 9.4434 0.33699 9.78409 0.755451 9.78409H1.60719Z" fill="#4D4D4D"/>
<path d="M14.8871 4.27734L15.4871 3.67742C15.7833 3.38117 15.7833 2.90346 15.4871 2.6072C15.1908 2.31095 14.7131 2.31095 14.4168 2.6072L13.8169 3.20712C13.5207 3.50337 13.5207 3.98108 13.8169 4.27734C14.1132 4.57359 14.5909 4.57359 14.8871 4.27734Z" fill="#4D4D4D"/>
<path d="M3.25863 4.27763C3.55489 4.57388 4.0326 4.57388 4.32885 4.27763C4.62511 3.98137 4.62511 3.50366 4.32885 3.2074L3.72894 2.60378C3.43268 2.30753 2.95497 2.30753 2.65871 2.60378C2.36246 2.90004 2.36246 3.37775 2.65871 3.67401L3.25863 4.27763V4.27763Z" fill="#4D4D4D"/>
<path d="M1.66655 13.0388C3.49593 11.7353 5.35493 12.3204 6.06965 12.6315L6.09187 12.6389C7.45835 13.2314 8.89889 13.5276 10.2913 13.5276C11.6689 13.5276 12.9983 13.2351 14.1574 12.6537C15.1165 12.1723 16.3349 12.0834 17.0385 12.2463C17.4459 12.3389 17.8532 12.0834 17.9495 11.676C18.0421 11.2687 17.7865 10.8576 17.3792 10.7651C16.8385 10.6392 16.1053 10.6095 15.3313 10.7243C15.4721 10.1911 15.5461 9.63929 15.5461 9.08751C15.5461 5.53986 12.6465 2.65137 9.08034 2.65137C5.51417 2.65137 2.61457 5.53986 2.61457 9.08751C2.61457 9.68373 2.69974 10.2799 2.86269 10.8502C2.19611 11.0058 1.4925 11.302 0.792601 11.7982C0.451908 12.0427 0.370438 12.5167 0.614848 12.8574C0.848149 13.2055 1.32216 13.2832 1.66655 13.0388V13.0388ZM9.07294 4.16597C11.8059 4.16597 14.0278 6.37307 14.0278 9.08751C14.0278 9.85407 13.8538 10.591 13.5094 11.2761C13.4945 11.2835 13.4834 11.2872 13.4686 11.2946C11.5393 12.2649 9.00628 12.2463 6.69178 11.2428L6.67327 11.2354C6.21407 11.0354 5.39567 10.7502 4.39581 10.7058C4.21065 10.1874 4.11807 9.64299 4.11807 9.08381C4.11807 6.37307 6.33998 4.16597 9.07294 4.16597V4.16597Z" fill="#4D4D4D"/>
<path d="M17.5237 15.3792C16.5498 15.157 14.9648 15.2347 13.6206 15.9124C11.6912 16.8826 9.15822 16.8641 6.84372 15.8606L6.82521 15.8532C5.87349 15.4384 3.39605 14.6607 0.937133 16.416C0.596439 16.6605 0.514969 17.1345 0.759379 17.4752C1.00379 17.8159 1.4778 17.8973 1.81849 17.6529C3.64787 16.3494 5.50687 16.9345 6.22159 17.2456L6.24381 17.253C7.61028 17.8455 9.05082 18.1417 10.4432 18.1417C11.8208 18.1417 13.1503 17.8492 14.3057 17.2678C15.2648 16.7864 16.4831 16.6975 17.1867 16.8604C17.5941 16.953 18.0014 16.6975 18.0977 16.2901C18.1866 15.8828 17.9311 15.4754 17.5237 15.3792Z" fill="#4D4D4D"/>
</svg>
