<svg width="25" height="24" viewBox="0 0 25 24" fill="none" xmlns="http://www.w3.org/2000/svg">
<path d="M24.4745 10.8555L13.5753 0.338709C13.3841 0.147495 13.0654 0.0200195 12.7467 0.0200195C12.428 0.0200195 12.1093 0.147495 11.9181 0.338709L1.01895 10.8555C0.636526 11.2379 0.700264 11.4928 0.764002 11.6841C0.82774 11.8115 1.01895 12.0665 1.52886 12.0665H2.73988V21.3722C2.73988 22.3283 3.56847 23.1569 4.52454 23.1569H10.0697V16.8468H15.36V23.1569H21.0327C21.9887 23.1569 22.7536 22.3283 22.7536 21.3722V12.0665H24.0283C24.5382 12.0665 24.7295 11.8115 24.7932 11.6841C24.7932 11.4928 24.8569 11.2379 24.4745 10.8555Z" fill="#BBBBBB"/>
</svg>
