<svg width="24" height="21" viewBox="0 0 24 21" fill="none" xmlns="http://www.w3.org/2000/svg">
<g clip-path="url(#clip0_2_310)">
<path d="M11.9222 0.655273C11.9222 0.655273 11.5519 4.98999 8.0826 8.0659C5.00013 10.2483 4.50649 11.4083 4.31513 13.0541C4.12239 14.7072 4.33177 17.9025 7.8025 20.0825C7.8025 20.0825 6.55454 17.4299 9.62869 15.251C12.56 13.1735 12.1981 11.6977 12.1537 11.5614C12.1898 11.6772 12.8845 13.8463 14.4056 15.0798C15.9656 16.3447 15.7368 18.5814 14.2614 20.6553C14.2614 20.6553 19.0592 17.958 19.4848 14.3419C20.1726 8.45415 14.1546 1.61144 11.9222 0.655273Z" fill="#A8A8A8"/>
</g>
<defs>
<clipPath id="clip0_2_310">
<rect width="23" height="20" fill="white" transform="translate(0.401855 0.655273)"/>
</clipPath>
</defs>
</svg>
