<svg width="20" height="20" viewBox="0 0 20 20" fill="none" xmlns="http://www.w3.org/2000/svg">
<path d="M1.6667 14.4817L1.6667 5.62933C1.6667 4.70191 2.26195 3.77449 3.19728 3.43733L7.44903 1.83541C7.70412 1.75116 7.9592 1.66683 8.29937 1.66683C8.72453 1.66683 9.2347 1.83541 9.65987 2.08833C9.82995 2.257 10.085 2.42558 10.1701 2.59425L13.4014 2.59425C14.6769 2.59425 15.7823 3.60591 15.7823 4.95483L15.7823 5.79791C15.7823 6.13516 15.5272 6.47241 15.1021 6.47241C14.6769 6.47241 14.4218 6.2195 14.4218 5.79791L14.4218 4.95483C14.4218 4.36466 13.9116 3.94316 13.4014 3.94316L10.5953 3.94316L10.5953 16.0835L13.4014 16.0835C13.9966 16.0835 14.4218 15.662 14.4218 15.0718L14.4218 14.2287C14.4218 13.8915 14.6769 13.5543 15.1021 13.5543C15.5272 13.5543 15.7823 13.8915 15.7823 14.2287L15.7823 15.0718C15.7823 16.3364 14.7619 17.4325 13.4014 17.4325L10.1701 17.4325C10 17.6011 9.82995 17.7697 9.65986 17.9383C8.97961 18.3598 8.21428 18.4442 7.44903 18.1912L3.19728 16.5894C2.34695 16.3364 1.6667 15.4091 1.6667 14.4817Z" fill="#989EA7"/>
<path d="M15.9524 7.6524C16.1225 7.6524 16.2926 7.73665 16.3776 7.82098L18.0783 9.50715C18.1633 9.59148 18.1633 9.67573 18.2483 9.67573C18.2483 9.76006 18.3334 9.8444 18.3334 9.92865C18.3334 10.013 18.3334 10.0973 18.2483 10.1816C18.2483 10.2659 18.1633 10.3502 18.0783 10.3502L16.3776 12.0364C16.1225 12.2893 15.6973 12.2893 15.4422 12.0364C15.1871 11.7835 15.1871 11.3619 15.4422 11.109L16.0375 10.5188L12.5511 10.5188C12.2109 10.5188 11.8708 10.2659 11.8708 9.8444C11.8708 9.42281 12.2109 9.33848 12.5511 9.33848L16.1225 9.33848L15.5272 8.7484C15.2721 8.49548 15.2721 8.0739 15.5272 7.82098C15.6123 7.73665 15.7824 7.6524 15.9524 7.6524Z" fill="#989EA7"/>
</svg>
