<svg width="18" height="22" viewBox="0 0 18 22" fill="none" xmlns="http://www.w3.org/2000/svg">
<path d="M5.56086 14.3213V21.7118H0.921875V0.771973H9.42668C11.2307 0.771973 12.5193 1.01832 13.8079 1.75738C15.0965 2.49643 16.1274 3.23549 16.6429 4.22089C17.1583 5.2063 17.6738 6.43805 17.6738 7.91616C17.6738 9.88697 16.9006 11.6114 15.3543 12.8432C13.8079 14.0749 12.0039 14.3213 9.42668 14.3213H5.56086ZM5.56086 10.8724H9.6844C10.973 10.8724 11.7462 10.626 12.5193 10.1333C13.2925 9.64062 13.5502 8.90157 13.5502 7.91616C13.5502 6.93076 13.2925 5.94535 12.5193 5.45265C11.7462 4.95994 10.973 4.46724 9.94212 4.46724H5.56086V10.8724Z" fill="#6B6B6B"/>
</svg>
