<svg width="14" height="18" viewBox="0 0 14 18" fill="none" xmlns="http://www.w3.org/2000/svg">
<path d="M3.798 11.093V17.1438H0V0H6.96301C8.44001 0 9.49501 0.201691 10.55 0.806766C11.605 1.41184 12.449 2.01691 12.871 2.82368C13.293 3.63044 13.715 4.6389 13.715 5.84905C13.715 7.46258 13.082 8.87442 11.816 9.88288C10.55 10.8913 9.07301 11.093 6.96301 11.093H3.798ZM3.798 8.26935H7.17401C8.22901 8.26935 8.86201 8.06766 9.49501 7.66427C10.128 7.26089 10.339 6.65582 10.339 5.84905C10.339 5.04228 10.128 4.23552 9.49501 3.83214C8.86201 3.42875 8.22901 3.02537 7.38501 3.02537H3.798V8.26935Z" fill="#4D4D4D"/>
</svg>
