<svg width="21" height="30" viewBox="0 0 21 30" fill="none" xmlns="http://www.w3.org/2000/svg">
<path d="M19.1446 12.9324V9.26348C19.1446 4.34201 15.1408 0.338135 10.2193 0.338135C5.29783 0.338135 1.29395 4.34201 1.29395 9.26348V12.8978C0.738985 13.1095 0.189941 13.5872 0.189941 14.5334V19.53C0.189941 25.0602 4.68916 29.5595 10.2194 29.5595C15.7496 29.5595 20.2486 25.0602 20.2486 19.53V14.5334C20.2486 13.6356 19.7131 13.1596 19.1446 12.9324ZM12.1256 23.6688C12.1569 23.8351 12.0442 23.9712 11.8749 23.9712H8.60148C8.43221 23.9712 8.31942 23.8351 8.35081 23.6688L8.87507 20.8902C8.47491 20.5253 8.22378 19.9997 8.22378 19.4155C8.22378 18.3134 9.1172 17.42 10.2193 17.42C11.3214 17.42 12.2148 18.3134 12.2148 19.4155C12.2148 19.9838 11.9768 20.4962 11.5955 20.8597L12.1256 23.6688ZM16.067 12.7543H4.37155V9.26348C4.37155 6.03908 6.99482 3.41573 10.2193 3.41573C13.4437 3.41573 16.067 6.03908 16.067 9.26348V12.7543Z" fill="#EAAD5F"/>
</svg>
