<svg width="20" height="17" viewBox="0 0 20 17" fill="none" xmlns="http://www.w3.org/2000/svg">
<path d="M13.0749 8.8593C12.1731 7.48005 10.6877 6.68433 9.04325 6.68433C7.39875 6.68433 5.91341 7.5331 5.01159 8.8593L2.57137 12.6257C1.93479 13.6336 1.98784 15.0129 2.78356 15.9147C3.57928 16.8696 4.90549 17.1348 6.0195 16.6574C7.92924 15.8086 10.0512 15.8086 11.9609 16.6574C13.0749 17.1348 14.4011 16.8696 15.1968 15.9147C15.9926 14.9598 16.0987 13.6336 15.409 12.6257L13.0749 8.8593Z" fill="#4D4D4D"/>
<path d="M3.102 8.5404C4.21601 8.11601 4.69345 6.73676 4.21601 5.41055C3.73858 4.08435 2.41238 3.39472 1.29836 3.81911C0.184353 4.24349 -0.293084 5.62275 0.18435 6.94895C0.661783 8.22211 1.98799 8.96478 3.102 8.5404Z" fill="#4D4D4D"/>
<path d="M7.4519 6.15359C8.8842 6.15359 10.0513 4.77434 10.0513 3.07679C10.0513 1.37925 8.8842 0 7.4519 0C6.0196 0 4.85254 1.37925 4.85254 3.07679C4.85254 4.77434 6.0196 6.15359 7.4519 6.15359Z" fill="#4D4D4D"/>
<path d="M12.3324 7.05555C13.7117 7.53298 15.2501 6.57811 15.7806 4.98667C16.3111 3.39522 15.6214 1.69768 14.2422 1.22025C12.8629 0.742815 11.3245 1.69768 10.794 3.28913C10.3166 4.93362 10.9532 6.63116 12.3324 7.05555Z" fill="#4D4D4D"/>
<path d="M18.5917 6.63094C17.6369 5.94132 16.2046 6.25961 15.3558 7.37362C14.507 8.48763 14.6131 9.97298 15.568 10.6626C16.5229 11.3522 17.9552 11.0339 18.8039 9.91993C19.5997 8.80592 19.5466 7.32057 18.5917 6.63094Z" fill="#4D4D4D"/>
</svg>
