<svg width="22" height="19" viewBox="0 0 22 19" fill="none" xmlns="http://www.w3.org/2000/svg">
<path d="M14.5593 9.959C13.5605 8.43137 11.9153 7.55005 10.0939 7.55005C8.27254 7.55005 6.62741 8.49013 5.62858 9.959L2.92585 14.1306C2.22079 15.2469 2.27954 16.7746 3.16087 17.7734C4.04219 18.831 5.51106 19.1248 6.74491 18.596C8.86009 17.6559 11.2103 17.6559 13.3255 18.596C14.5593 19.1248 16.0282 18.831 16.9095 17.7734C17.7908 16.7158 17.9083 15.2469 17.1445 14.1306L14.5593 9.959Z" fill="#6B6B6B"/>
<path d="M3.51382 9.60663C4.74767 9.1366 5.27647 7.60897 4.74768 6.1401C4.21888 4.67123 2.75001 3.90741 1.51616 4.37745C0.28231 4.84749 -0.246487 6.37512 0.282306 7.84399C0.8111 9.2541 2.27997 10.0767 3.51382 9.60663Z" fill="#6B6B6B"/>
<path d="M8.33211 6.96253C9.91849 6.96253 11.2111 5.43491 11.2111 3.55475C11.2111 1.6746 9.91849 0.146973 8.33211 0.146973C6.74573 0.146973 5.45312 1.6746 5.45312 3.55475C5.45313 5.43491 6.74573 6.96253 8.33211 6.96253Z" fill="#6B6B6B"/>
<path d="M13.7375 7.96144C15.2651 8.49023 16.969 7.43265 17.5566 5.67C18.1441 3.90736 17.3803 2.0272 15.8527 1.49841C14.3251 0.969614 12.6212 2.0272 12.0336 3.78985C11.5048 5.61125 12.2099 7.4914 13.7375 7.96144Z" fill="#6B6B6B"/>
<path d="M20.6697 7.49151C19.6121 6.7277 18.0258 7.08023 17.0857 8.31408C16.1456 9.54793 16.2631 11.1931 17.3207 11.9569C18.3783 12.7207 19.9647 12.3682 20.9047 11.1343C21.7861 9.90046 21.7273 8.25533 20.6697 7.49151Z" fill="#6B6B6B"/>
</svg>
