<svg width="22" height="22" viewBox="0 0 22 22" fill="none" xmlns="http://www.w3.org/2000/svg">
<path d="M16.4656 14.6385C15.7796 13.9611 14.9231 13.9611 14.2414 14.6385C13.7213 15.1541 13.2013 15.6698 12.69 16.1942C12.5502 16.3384 12.4322 16.369 12.2618 16.2728C11.9253 16.0893 11.567 15.9407 11.2436 15.7397C9.73598 14.7914 8.47307 13.5722 7.35437 12.2001C6.79939 11.5184 6.30559 10.7886 5.96037 9.96704C5.89045 9.80098 5.90356 9.69174 6.03903 9.55627C6.55905 9.05373 7.06596 8.53808 7.57724 8.02243C8.28953 7.30577 8.28953 6.46674 7.57287 5.74571C7.16647 5.33494 6.76007 4.9329 6.35366 4.52213C5.93415 4.10262 5.51901 3.67874 5.09513 3.2636C4.40905 2.595 3.55255 2.595 2.87084 3.26797C2.34646 3.78362 1.84392 4.31238 1.31079 4.81929C0.816987 5.28687 0.567902 5.85932 0.515463 6.52792C0.432435 7.61603 0.698999 8.64296 1.07481 9.64367C1.84392 11.715 3.01505 13.5547 4.43527 15.2415C6.35366 17.5226 8.6435 19.3274 11.3223 20.6296C12.5283 21.2152 13.7781 21.6653 15.1372 21.7396C16.0723 21.792 16.8851 21.556 17.5363 20.8263C17.982 20.3281 18.4845 19.8736 18.9565 19.3973C19.6557 18.6894 19.66 17.8329 18.9652 17.1337C18.1349 16.299 17.3003 15.4688 16.4656 14.6385Z" fill="#709A88"/>
<path d="M15.631 11.1559L17.2435 10.8806C16.9901 9.3992 16.2909 8.05764 15.229 6.99138C14.1059 5.86832 12.6857 5.16039 11.1213 4.94189L10.894 6.56313C12.1045 6.73356 13.2057 7.2798 14.0753 8.14941C14.8969 8.97095 15.4344 10.011 15.631 11.1559Z" fill="#709A88"/>
<path d="M18.1525 4.14637C16.2909 2.28479 13.9355 1.10928 11.3354 0.746582L11.1082 2.36782C13.3543 2.68245 15.3907 3.70064 16.9988 5.3044C18.5239 6.8295 19.5246 8.75663 19.8873 10.876L21.4998 10.6007C21.0759 8.14484 19.9179 5.91619 18.1525 4.14637Z" fill="#709A88"/>
</svg>
