<svg width="17" height="21" viewBox="0 0 17 21" fill="none" xmlns="http://www.w3.org/2000/svg">
<path d="M0 15.4737C0 16.4684 0.425 17.3526 1.0625 17.9053V19.8947C1.0625 20.5579 1.4875 21 2.125 21H3.1875C3.825 21 4.25 20.5579 4.25 19.8947V18.7895H12.75V19.8947C12.75 20.5579 13.175 21 13.8125 21H14.875C15.5125 21 15.9375 20.5579 15.9375 19.8947V17.9053C16.575 17.3526 17 16.4685 17 15.4737V4.42105C17 0.552632 13.175 0 8.5 0C3.825 0 0 0.552632 0 4.42105V15.4737ZM3.71875 16.5789C2.86875 16.5789 2.125 15.8053 2.125 14.9211C2.125 14.0368 2.86875 13.2632 3.71875 13.2632C4.56875 13.2632 5.3125 14.0368 5.3125 14.9211C5.3125 15.8053 4.56875 16.5789 3.71875 16.5789ZM13.2813 16.5789C12.4313 16.5789 11.6875 15.8053 11.6875 14.9211C11.6875 14.0368 12.4313 13.2632 13.2813 13.2632C14.1313 13.2632 14.875 14.0368 14.875 14.9211C14.875 15.8053 14.1313 16.5789 13.2813 16.5789ZM14.875 9.94737H2.125V4.42105H14.875V9.94737Z" fill="#6B6B6B"/>
</svg>
