<svg width="27" height="27" viewBox="0 0 27 27" fill="none" xmlns="http://www.w3.org/2000/svg">
<g clip-path="url(#clip0_100_1961)">
<path d="M13.2192 0.94873C6.05116 0.94873 0.219238 6.78065 0.219238 13.9487C0.219238 21.1168 6.05116 26.9487 13.2192 26.9487C20.3873 26.9487 26.2192 21.1168 26.2192 13.9487C26.2192 6.78065 20.3873 0.94873 13.2192 0.94873ZM23.4929 18.2383C22.2149 21.2881 19.6168 23.6528 16.4165 24.6138C16.4739 24.5073 16.5295 24.3996 16.5832 24.2907C16.8582 23.7343 17.1471 23.342 17.6319 22.9507C18.003 22.6511 18.7315 22.1869 18.6124 21.6017C18.5265 21.1787 18.0436 21.0052 17.6787 20.9018C17.0998 20.7378 16.4804 20.6952 15.883 20.6539C15.3656 20.6177 14.8283 20.6362 14.3231 20.5073C13.5672 20.3149 13.3968 19.6606 13.349 18.9708C13.3064 18.3576 13.3155 17.7272 13.014 17.1723C12.6257 16.4582 11.732 16.2551 10.9909 16.1869C10.3653 16.1296 9.74056 16.1598 9.11837 16.0556C8.51977 15.9553 7.95285 15.7451 7.33816 15.7689C6.54153 15.7996 6.18376 16.3396 5.84395 16.964C5.67622 17.2724 4.61674 19.6439 3.99426 20.1756C2.92088 18.591 2.24567 16.7161 2.11119 14.6955C2.19917 14.6718 2.28636 14.639 2.37488 14.5949C2.72122 14.423 2.96387 14.1125 3.34075 13.9896C3.70009 13.8725 4.16435 13.9764 4.53149 14.0123C4.89682 14.0481 5.26783 14.0859 5.63347 14.0362C6.36334 13.9365 6.75008 13.4323 6.86665 12.7285C6.93595 12.3081 6.88189 11.8853 6.89441 11.462C6.91418 10.8024 7.34705 10.5657 7.94354 10.5096C9.07024 10.4038 11.6985 10.7024 11.7517 8.96834C11.7744 8.22661 10.8916 7.84381 10.3166 7.64585C9.19704 7.26068 7.97377 7.39516 6.82868 7.1276C6.21961 6.98527 5.7059 6.60536 5.27515 6.15635C7.29735 4.09576 10.1112 2.81493 13.2192 2.81493C13.884 2.81493 14.5347 2.87358 15.1674 2.98592C14.8439 3.04602 14.5246 3.1314 14.2139 3.25687C12.5749 3.91769 12.5255 5.77717 13.2419 7.1741C13.6862 8.04044 14.4057 8.76627 15.1573 9.36983C15.8849 9.95386 16.6799 10.299 17.4866 10.742C18.5569 11.3305 18.4277 12.8674 18.6985 13.903C18.9268 14.7763 19.4753 15.513 20.3397 15.8153C20.8623 15.9979 21.4761 15.8554 21.9337 16.2195C22.3267 16.5313 22.4191 17.1696 22.6437 17.5986C22.8674 18.0267 23.1652 18.2069 23.4929 18.2383Z" fill="#EAAD5F"/>
</g>
<defs>
<clipPath id="clip0_100_1961">
<rect width="26" height="26" fill="white" transform="translate(0.219238 0.94873)"/>
</clipPath>
</defs>
</svg>
