<svg width="22" height="22" viewBox="0 0 22 22" fill="none" xmlns="http://www.w3.org/2000/svg">
<g clip-path="url(#clip0_109_1080)">
<path d="M19.991 9.25277H12.9117V2.17345C12.9117 1.22161 12.1383 0.448242 11.1865 0.448242C10.2346 0.448242 9.46127 1.22161 9.46127 2.17345V9.25277H2.38195C1.43011 9.25277 0.656738 10.0261 0.656738 10.978C0.656738 11.9298 1.43011 12.7032 2.38195 12.7032H9.46127V19.7825C9.46127 20.7344 10.2346 21.5077 11.1865 21.5077C12.1383 21.5077 12.9117 20.7344 12.9117 19.7825V12.7032H19.991C20.9429 12.7032 21.7162 11.9298 21.7162 10.978C21.6567 10.0261 20.9429 9.25277 19.991 9.25277Z" fill="#747474"/>
</g>
<defs>
<clipPath id="clip0_109_1080">
<rect width="21" height="21" fill="white" transform="translate(0.656738 0.448242)"/>
</clipPath>
</defs>
</svg>
