<svg width="28" height="19" viewBox="0 0 28 19" fill="none" xmlns="http://www.w3.org/2000/svg">
<path d="M24.8802 15.2501C24.5682 15.5834 24.1783 15.8334 23.7103 15.8334C23.2423 15.8334 22.8524 15.6667 22.5404 15.2501C21.6045 14.1667 20.2786 13.4167 18.7187 13.4167C17.2368 13.4167 15.9109 14.0834 14.9749 15.2501C14.663 15.5834 14.273 15.8334 13.805 15.8334C13.337 15.8334 12.9471 15.6667 12.6351 15.2501C11.6992 14.1667 10.3733 13.4167 8.89136 13.4167C7.40947 13.4167 6.08357 14.0834 5.14763 15.2501C4.83565 15.5834 4.44568 15.8334 3.97772 15.8334C3.50975 15.8334 3.11978 15.6667 2.8078 15.2501C2.10585 14.3334 1.09192 13.7501 0 13.5834V16.8334C0.233983 17.0001 0.467967 17.1667 0.623955 17.3334C1.48189 18.3334 2.65181 18.9167 3.97772 18.9167C5.22563 18.9167 6.47354 18.3334 7.33148 17.3334C7.72145 16.8334 8.26741 16.5834 8.89136 16.5834C9.51532 16.5834 10.0613 16.8334 10.4513 17.3334C11.3092 18.3334 12.4791 18.9167 13.805 18.9167C15.0529 18.9167 16.3008 18.3334 17.1588 17.3334C17.5487 16.8334 18.0947 16.5834 18.7187 16.5834C19.5766 16.5834 20.0446 17.0834 20.2786 17.3334C21.1365 18.3334 22.3844 19.0001 23.6323 19.0001C24.9582 19.0001 26.1281 18.4167 26.9861 17.3334C27.1421 17.1667 27.454 16.8334 27.922 16.6667V13.5001C26.7521 13.6667 25.6602 14.3334 24.8802 15.2501Z" fill="#6B6B6B"/>
<path d="M21.7606 12.1667C23.7421 12.1667 25.3483 10.4504 25.3483 8.33333C25.3483 6.21624 23.7421 4.5 21.7606 4.5C19.7791 4.5 18.1729 6.21624 18.1729 8.33333C18.1729 10.4504 19.7791 12.1667 21.7606 12.1667Z" fill="#6B6B6B"/>
<path d="M13.4147 14.5834C13.6487 14.8334 14.0387 14.8334 14.2727 14.5834C15.2086 13.5 16.4565 12.75 17.7824 12.5C17.8604 11.9167 17.8604 11.3334 17.6264 10.6667C17.5484 10.3334 16.3785 6.25002 16.3785 6.25002C16.3785 6.25002 16.2225 5.41669 16.6905 4.66669C17.1585 3.91669 18.1724 3.41669 19.5763 3.16669C20.3562 3.00002 20.9022 2.25002 20.8242 1.41669C20.7462 0.583357 19.9663 2.34364e-05 19.1863 0.0833568C16.9245 0.41669 15.2086 1.41669 14.2727 2.91669C13.1028 4.83336 13.4147 6.75002 13.4927 7.00002L13.8047 8.33336C13.6487 8.33336 13.4147 8.41669 13.2588 8.50002L7.33117 10.75C6.00527 11.25 5.14733 12.5 5.06934 13.9167C6.16126 13 7.48716 12.4167 8.89106 12.4167C10.6069 12.4167 12.2448 13.1667 13.4147 14.5834Z" fill="#6B6B6B"/>
</svg>
