<svg width="19" height="18" viewBox="0 0 19 18" fill="none" xmlns="http://www.w3.org/2000/svg">
<g clip-path="url(#clip0_2_265)">
<path d="M2.47861 12.4655C-0.36908 9.6177 -0.36902 4.98405 2.47861 2.1363C5.32636 -0.711449 9.95996 -0.711449 12.8076 2.1363C15.2236 4.55223 15.5895 8.14533 13.9063 10.9511C13.9063 10.9511 13.7854 11.154 13.9487 11.3172C14.8802 12.2486 17.675 15.0435 17.675 15.0435C18.4167 15.7851 18.5933 16.8222 17.9356 17.4801L17.8223 17.5932C17.1646 18.2511 16.1275 18.0746 15.3858 17.3329C15.3858 17.3329 12.5969 14.5439 11.6673 13.6143C11.4962 13.4432 11.2934 13.5641 11.2934 13.5641C8.48764 15.2472 4.89454 14.8814 2.47861 12.4655ZM11.4592 11.117C13.5634 9.0128 13.5634 5.58907 11.4592 3.48488C9.35499 1.38074 5.93127 1.38068 3.82713 3.48488C1.72294 5.58902 1.72294 9.0128 3.82713 11.117C5.93133 13.2211 9.35499 13.2211 11.4592 11.117Z" fill="#666666"/>
<path d="M10.9939 6.86776C11.0918 6.86776 11.1914 6.8485 11.2873 6.80797C11.6707 6.64573 11.85 6.20341 11.6878 5.82001C10.668 3.41017 7.87792 2.27927 5.46814 3.29901C5.0848 3.46125 4.90545 3.90357 5.06769 4.28697C5.23 4.67038 5.6722 4.84961 6.05572 4.68743C7.69985 3.99171 9.60364 4.76333 10.2993 6.40746C10.421 6.69501 10.7002 6.86776 10.9939 6.86776Z" fill="#666666"/>
</g>
<defs>
<clipPath id="clip0_2_265">
<rect width="18" height="18" fill="white" transform="matrix(-1 0 0 1 18.3433 0.000976562)"/>
</clipPath>
</defs>
</svg>
