<svg width="25" height="22" viewBox="0 0 25 22" fill="none" xmlns="http://www.w3.org/2000/svg">
<path d="M14.105 11.6702C15.1 12.1969 16.446 12.3724 17.0313 12.1969L16.9727 15.4157C16.9727 15.7669 17.2068 16.001 17.558 16.001C17.9091 16.001 18.1432 15.7669 18.1432 15.4157L18.2603 9.32916C18.9041 9.21211 19.8405 7.74899 20.3087 6.51997C21.2451 3.7693 20.7769 0.433387 20.7769 0.433387C20.7769 0.433387 18.2018 3.41815 17.6165 5.70062C17.6165 5.8762 17.6165 5.99324 17.558 6.11029C17.558 5.99324 17.4995 5.93472 17.4995 5.81767C16.6216 3.067 13.8709 0.257812 13.8709 0.257812C13.8709 0.257812 14.0465 4.58865 14.9244 6.81259C15.3926 8.04161 16.5046 9.32916 17.0898 9.50473V11.2605C16.7386 10.6752 16.0364 10.0315 15.3341 9.62178C13.1686 8.27571 10.418 8.33424 10.418 8.33424C10.418 8.33424 12.2908 10.7338 14.105 11.6702Z" fill="#6B6B6B"/>
<path d="M23.1173 16.5862C21.5957 16.7618 18.7865 17.5226 16.9722 17.6397C16.0943 17.6982 14.3971 17.4641 13.7533 17.1715C12.6999 16.6447 12.7584 15.6498 12.7584 15.6498H15.3335C15.8602 15.6498 16.2699 15.2401 16.2699 14.7134V14.5378C16.2699 14.0111 15.8602 13.6015 15.3335 13.6015C15.3335 13.6015 11.3538 13.3674 10.0077 13.2503C8.89577 13.1918 6.67183 13.4259 5.55986 14.4208C4.85756 15.006 4.56494 15.3572 4.21379 15.5328C3.16034 16.1765 3.45296 16.118 0 16.118V21.1512C2.34099 20.3318 2.80919 20.2148 3.86264 19.9221C4.85756 19.6295 5.03313 19.5125 9.12987 20.3318C13.9874 21.2682 14.046 21.3267 16.2699 21.0341C17.8501 20.8 21.4786 19.7466 23.0588 18.9272C23.644 18.6346 24.1707 18.459 24.1707 17.8152V17.7567C24.1707 17.1129 23.7026 16.5277 23.1173 16.5862Z" fill="#6B6B6B"/>
</svg>
