<svg width="18" height="15" viewBox="0 0 18 15" fill="none" xmlns="http://www.w3.org/2000/svg">
<path d="M10.0103 8.09948C10.7164 8.4733 11.6717 8.59791 12.0871 8.4733L12.0456 10.7578C12.0456 11.007 12.2117 11.1731 12.4609 11.1731C12.7101 11.1731 12.8763 11.007 12.8763 10.7578L12.9594 6.43805C13.4162 6.35498 14.0808 5.31658 14.4131 4.44433C15.0777 2.49215 14.7454 0.124607 14.7454 0.124607C14.7454 0.124607 12.9178 2.24293 12.5025 3.86283C12.5025 3.98744 12.5025 4.07051 12.4609 4.15358C12.4609 4.07051 12.4194 4.02897 12.4194 3.9459C11.7964 1.99372 9.84417 0 9.84417 0C9.84417 0 9.96877 3.07365 10.5918 4.65201C10.9241 5.52426 11.7133 6.43805 12.1286 6.56266V7.80873C11.8794 7.39337 11.381 6.93648 10.8826 6.64573C9.34574 5.69041 7.39355 5.73194 7.39355 5.73194C7.39355 5.73194 8.7227 7.43491 10.0103 8.09948Z" fill="#4D4D4D"/>
<path d="M16.4066 11.5883C15.3267 11.7129 13.333 12.2529 12.0454 12.336C11.4223 12.3775 10.2178 12.2114 9.76091 12.0037C9.01327 11.6299 9.05481 10.9237 9.05481 10.9237H10.8824C11.2562 10.9237 11.547 10.633 11.547 10.2592V10.1346C11.547 9.76074 11.2562 9.46999 10.8824 9.46999C10.8824 9.46999 8.05795 9.30385 7.10262 9.22078C6.31344 9.17924 4.73508 9.34538 3.9459 10.0515C3.44747 10.4669 3.23979 10.7161 2.99058 10.8407C2.24293 11.2976 2.45061 11.256 0 11.256V14.8281C1.66143 14.2466 1.99372 14.1635 2.74136 13.9559C3.44747 13.7482 3.57208 13.6651 6.47959 14.2466C9.92706 14.9112 9.96859 14.9527 11.547 14.745C12.6684 14.5789 15.2436 13.8312 16.3651 13.2497C16.7805 13.0421 17.1543 12.9175 17.1543 12.4606V12.419C17.1543 11.9621 16.822 11.5468 16.4066 11.5883Z" fill="#4D4D4D"/>
</svg>
