<svg width="14" height="14" viewBox="0 0 14 14" fill="none" xmlns="http://www.w3.org/2000/svg">
<path d="M7.68987 1.26083L9.12018 4.3529C9.21554 4.58564 9.43803 4.75188 9.69231 4.78512L12.9344 5.2506C13.5383 5.35034 13.7926 6.11505 13.3476 6.54727L10.9955 8.90789C10.8048 9.07413 10.7412 9.34011 10.773 9.6061L11.3769 12.9642C11.4723 13.5959 10.8684 14.0613 10.328 13.7621L7.37202 12.1329C7.14953 12 6.89525 12 6.67275 12.1329L3.78033 13.7621C3.23999 14.0613 2.60429 13.5959 2.73143 12.9642L3.33535 9.6061C3.36713 9.34011 3.30356 9.10737 3.11285 8.90789L0.760773 6.54727C0.315786 6.11505 0.570064 5.31709 1.17398 5.2506L4.41603 4.78512C4.67031 4.75188 4.86102 4.58564 4.98816 4.3529L6.41847 1.26083C6.64097 0.69561 7.43559 0.69561 7.68987 1.26083Z" fill="#EAAD5F"/>
</svg>
