<svg width="18" height="17" viewBox="0 0 18 17" fill="none" xmlns="http://www.w3.org/2000/svg">
<path d="M14.5385 15.3022C12.3664 15.0578 10.5284 14.895 8.77406 14.895C9.35886 13.5104 9.69302 11.6373 9.69302 9.68262C9.69302 5.28471 8.18926 1.94556 6.18425 1.94556C4.17923 1.94556 2.67547 5.28471 2.67547 9.68262C2.67547 11.7187 3.00964 13.6733 3.67798 15.0578C2.9261 15.1393 2.09068 15.2207 1.25525 15.3022C0.837541 15.3022 0.586914 15.6279 0.586914 15.9537C0.586914 16.2795 0.921083 16.5238 1.25525 16.5238C5.51591 16.0352 8.94114 15.8723 14.3714 16.5238H14.4549C14.7891 16.5238 15.0397 16.2795 15.0397 15.9537C15.1233 15.6279 14.8726 15.3022 14.5385 15.3022ZM3.67798 9.68262C3.67798 6.26203 4.76403 3.57441 5.76654 3.08576V14.895C5.43237 14.895 5.01466 14.895 4.68049 14.9764C4.01215 13.6733 3.67798 11.7187 3.67798 9.68262ZM6.43488 14.895V3.08576C7.52092 3.57441 8.52343 6.26203 8.52343 9.68262C8.52343 11.7187 8.18926 13.5919 7.52093 14.895C7.18676 14.895 6.85259 14.895 6.43488 14.895Z" fill="#737373"/>
<path d="M13.9535 5.24295C14.7627 5.24295 15.4186 4.60345 15.4186 3.81459C15.4186 3.02573 14.7627 2.38623 13.9535 2.38623C13.1443 2.38623 12.4883 3.02573 12.4883 3.81459C12.4883 4.60345 13.1443 5.24295 13.9535 5.24295Z" fill="#737373"/>
<path d="M10.863 4.0885H11.893C11.9866 4.0885 12.1739 3.99721 12.1739 3.81463C12.1739 3.63206 12.0803 3.54077 11.893 3.54077H10.863C10.7693 3.54077 10.582 3.63206 10.582 3.81463C10.582 3.99721 10.7693 4.0885 10.863 4.0885Z" fill="#737373"/>
<path d="M17.0434 3.54077H16.0133C15.9197 3.54077 15.7324 3.63206 15.7324 3.81463C15.7324 3.99721 15.8261 4.0885 16.0133 4.0885H17.0434C17.137 4.0885 17.3243 3.99721 17.3243 3.81463C17.3243 3.63206 17.2307 3.54077 17.0434 3.54077Z" fill="#737373"/>
<path d="M14.0475 2.07974C14.1412 2.07974 14.3284 1.98845 14.3284 1.80588V0.893003C14.3284 0.801716 14.2348 0.619141 14.0475 0.619141C13.8602 0.619141 13.7666 0.710428 13.7666 0.893003V1.89716C13.7666 1.98845 13.8602 2.07974 14.0475 2.07974Z" fill="#737373"/>
<path d="M13.7666 5.82318V6.82734C13.7666 6.91863 13.8602 7.1012 14.0475 7.1012C14.2348 7.1012 14.3284 7.00992 14.3284 6.82734V5.82318C14.3284 5.73189 14.2348 5.54932 14.0475 5.54932C13.8602 5.54932 13.7666 5.73189 13.7666 5.82318Z" fill="#737373"/>
<path d="M12.3613 5.0919L11.6122 5.8222C11.5186 5.91349 11.5186 6.09606 11.6122 6.18735C11.6122 6.18735 11.7059 6.27864 11.7995 6.27864C11.8931 6.27864 11.8931 6.27864 11.9868 6.18735L12.7359 5.45705C12.8296 5.36577 12.8296 5.18319 12.7359 5.0919C12.6423 5.00062 12.455 5.00062 12.3613 5.0919Z" fill="#737373"/>
<path d="M15.4518 2.62752C15.5455 2.62752 15.5455 2.62752 15.6391 2.53623L16.3883 1.80593C16.4819 1.71464 16.4819 1.53207 16.3883 1.44078C16.2946 1.34949 16.1073 1.34949 16.0137 1.44078L15.2646 2.17108C15.1709 2.26237 15.1709 2.44494 15.2646 2.53623C15.3582 2.62752 15.3582 2.62752 15.4518 2.62752Z" fill="#737373"/>
<path d="M12.3613 2.53625C12.3613 2.53625 12.455 2.62754 12.5486 2.62754C12.6423 2.62754 12.6423 2.62754 12.7359 2.53625C12.8296 2.44496 12.8296 2.26239 12.7359 2.1711L11.9868 1.53209C11.8931 1.4408 11.7059 1.4408 11.6122 1.53209C11.5186 1.62338 11.5186 1.80595 11.6122 1.89724L12.3613 2.53625Z" fill="#737373"/>
<path d="M15.6391 5.00059C15.5455 4.90931 15.3582 4.90931 15.2646 5.00059C15.1709 5.09188 15.1709 5.27446 15.2646 5.36574L16.0137 6.09604C16.0137 6.09604 16.1073 6.18733 16.201 6.18733C16.2946 6.18733 16.2946 6.18733 16.3883 6.09604C16.4819 6.00476 16.4819 5.82218 16.3883 5.73089L15.6391 5.00059Z" fill="#737373"/>
</svg>
