<svg width="16" height="26" viewBox="0 0 16 26" fill="none" xmlns="http://www.w3.org/2000/svg">
<path d="M13.1764 4.51548H13.0396V2.1209C13.0396 1.29991 12.4923 0.615747 11.7397 0.342081C11.6713 0.136833 11.466 0 11.2608 0H5.17173C4.96648 0 4.76123 0.136833 4.69281 0.342081C3.94023 0.615747 3.3929 1.29991 3.3929 2.1209V4.51548H3.25607C1.81933 4.51548 0.65625 5.67855 0.65625 7.11529V22.1669C0.65625 23.6036 1.81933 24.7667 3.25607 24.7667H4.00865V24.8351V24.9719C4.00865 25.1088 4.14548 25.1772 4.2139 25.1772H5.03489C5.17173 25.1772 5.24015 25.0404 5.24015 24.9719C5.24015 25.1088 5.37697 25.1772 5.44539 25.1772H6.26639C6.40322 25.1772 6.47164 25.0404 6.47164 24.9719V24.8351V24.7667H9.6872V24.8351V24.9719C9.6872 25.1088 9.82403 25.1772 9.89245 25.1772H10.7134C10.8503 25.1772 10.9187 25.0404 10.9187 24.9719C10.9187 25.1088 11.0555 25.1772 11.1239 25.1772H11.9449C12.0818 25.1772 12.1502 25.0404 12.1502 24.9719V24.8351V24.7667H12.9028C14.3395 24.7667 15.5026 23.6036 15.5026 22.1669V7.11529C15.7762 5.67855 14.6132 4.51548 13.1764 4.51548ZM4.07706 2.1209C4.07706 1.64199 4.41915 1.16308 4.82965 1.02624C4.89806 1.09466 5.0349 1.16308 5.17173 1.16308H11.2608C11.3976 1.16308 11.5344 1.09466 11.6029 1.02624C12.0134 1.23149 12.3554 1.64199 12.3554 2.1209V4.51548H4.07706V2.1209V2.1209ZM5.30856 24.7667C5.30856 24.7667 5.30856 24.6983 5.30856 24.7667C5.30856 24.6983 5.30856 24.7667 5.30856 24.7667ZM11.1239 24.7667C11.1239 24.7667 11.1239 24.6983 11.1239 24.7667C11.1239 24.6983 11.1239 24.7667 11.1239 24.7667Z" fill="#BBBBBB"/>
</svg>
