<svg width="19" height="18" viewBox="0 0 19 18" fill="none" xmlns="http://www.w3.org/2000/svg">
<path d="M9.65634 9.60954C10.776 9.51489 11.8133 8.98296 12.5436 8.12896C13.2739 7.27496 13.6383 6.16765 13.558 5.04687C13.558 1.54952 11.8118 0.480469 9.65758 0.480469C7.50336 0.480469 5.75717 1.54952 5.75717 5.04687C5.67682 6.16726 6.04093 7.27422 6.77068 8.12815C7.50043 8.98208 8.53712 9.51428 9.65634 9.60954V9.60954Z" fill="#94B4C4"/>
<path d="M18.272 16.3302L16.3038 11.8965C16.2128 11.6931 16.056 11.5262 15.8586 11.4227L12.804 9.83281C12.771 9.81563 12.7338 9.80815 12.6967 9.81122C12.6596 9.81429 12.6241 9.82781 12.5944 9.85018C11.7522 10.4979 10.7195 10.8491 9.657 10.8491C8.5945 10.8491 7.5618 10.4979 6.7196 9.85018C6.68986 9.82781 6.6544 9.81429 6.61731 9.81122C6.58022 9.80815 6.54302 9.81563 6.51 9.83281L3.45664 11.4203C3.25924 11.5237 3.1024 11.6906 3.01141 11.894L1.04322 16.3302C0.976678 16.48 0.948613 16.644 0.961579 16.8074C0.974545 16.9707 1.02813 17.1283 1.11747 17.2657C1.2068 17.403 1.32906 17.5159 1.47312 17.5941C1.61718 17.6722 1.77848 17.7131 1.94236 17.713H17.3716C17.5355 17.7131 17.6968 17.6722 17.8409 17.5941C17.9849 17.5159 18.1072 17.403 18.1965 17.2657C18.2859 17.1283 18.3395 16.9707 18.3524 16.8074C18.3654 16.644 18.3373 16.48 18.2708 16.3302H18.272Z" fill="#94B4C4"/>
</svg>
