<svg width="24" height="24" viewBox="0 0 24 24" fill="none" xmlns="http://www.w3.org/2000/svg">
<path d="M12.219 12.6247C15.0523 12.6247 17.3495 9.93611 17.3495 6.61958C17.3495 2.02046 15.0525 0.614502 12.219 0.614502C9.38534 0.614502 7.08838 2.02046 7.08838 6.61958C7.08843 9.93611 9.38539 12.6247 12.219 12.6247Z" fill="#EAAD5F"/>
<path d="M23.5486 21.4633L20.9601 15.6324C20.8417 15.3656 20.6338 15.1443 20.3749 15.0095L16.3578 12.9183C16.2692 12.8723 16.1619 12.8813 16.0823 12.9415C14.9461 13.8009 13.6102 14.2551 12.2192 14.2551C10.828 14.2551 9.49218 13.8009 8.35601 12.9415C8.27614 12.8813 8.16888 12.8723 8.08029 12.9183L4.06347 15.0095C3.80448 15.1443 3.59672 15.3655 3.47821 15.6324L0.889771 21.4633C0.711314 21.8653 0.747889 22.3252 0.987641 22.6939C1.22728 23.0626 1.63285 23.2826 2.07259 23.2826H22.3657C22.8054 23.2826 23.2111 23.0625 23.4507 22.6939C23.6903 22.3252 23.727 21.8651 23.5486 21.4633Z" fill="#EAAD5F"/>
</svg>
