<svg width="24" height="24" viewBox="0 0 24 24" fill="none" xmlns="http://www.w3.org/2000/svg">
<path d="M12.219 12.6254C15.0523 12.6254 17.3495 9.93684 17.3495 6.62031C17.3495 2.02119 15.0525 0.615234 12.219 0.615234C9.38534 0.615234 7.08838 2.02119 7.08838 6.62031C7.08843 9.93684 9.38539 12.6254 12.219 12.6254Z" fill="#EAAD5F"/>
<path d="M23.5486 21.4638L20.9601 15.6329C20.8417 15.3661 20.6338 15.1448 20.3749 15.01L16.3578 12.9188C16.2692 12.8728 16.1619 12.8817 16.0823 12.942C14.9461 13.8014 13.6102 14.2556 12.2192 14.2556C10.828 14.2556 9.49218 13.8014 8.35601 12.942C8.27614 12.8817 8.16888 12.8728 8.08029 12.9188L4.06347 15.01C3.80448 15.1448 3.59672 15.3659 3.47821 15.6329L0.889771 21.4638C0.711314 21.8658 0.747889 22.3257 0.987641 22.6944C1.22728 23.0631 1.63285 23.2831 2.07259 23.2831H22.3657C22.8054 23.2831 23.2111 23.063 23.4507 22.6944C23.6903 22.3257 23.727 21.8656 23.5486 21.4638Z" fill="#EAAD5F"/>
</svg>
