<svg width="23" height="19" viewBox="0 0 23 19" fill="none" xmlns="http://www.w3.org/2000/svg">
<path d="M11.0389 12.1681C12.9154 12.1681 14.3814 13.6927 14.3814 15.5106C14.3814 17.387 12.8567 18.853 11.0389 18.853C9.22108 18.853 7.69645 17.3284 7.69645 15.5106C7.69645 13.6927 9.16244 12.1681 11.0389 12.1681ZM17.1961 11.1712C17.8411 10.5262 17.8411 9.47067 17.1961 8.82564C13.795 5.42454 8.22421 5.42454 4.82311 8.82564C4.17807 9.47067 4.17807 10.5262 4.82311 11.1712C5.46815 11.8163 6.52366 11.8163 7.1687 11.1712C9.27972 9.0602 12.7395 9.0602 14.8505 11.1712C15.2023 11.5231 15.6128 11.6403 16.0233 11.6403C16.4338 11.6403 16.9029 11.5231 17.1961 11.1712ZM2.82936 6.89053C4.99903 4.66222 7.93101 3.48943 11.0389 3.48943C14.1468 3.48943 17.0202 4.72086 19.2485 6.89053C19.8935 7.53557 20.949 7.53557 21.594 6.89053C22.2391 6.24549 22.2391 5.18998 21.594 4.54495C18.7207 1.73024 14.9678 0.146973 11.0389 0.146973C7.05142 0.146973 3.29848 1.6716 0.483777 4.54495C-0.161259 5.18998 -0.161259 6.24549 0.483777 6.89053C0.835615 7.24237 1.24609 7.35965 1.65657 7.35965C2.06705 7.35965 2.47752 7.18373 2.82936 6.89053Z" fill="#6B6B6B"/>
</svg>
