<svg width="19" height="17" viewBox="0 0 19 17" fill="none" xmlns="http://www.w3.org/2000/svg">
<path d="M9.46192 10.3038C11.0703 10.3038 12.3269 11.6106 12.3269 13.1688C12.3269 14.7772 11.0201 16.0338 9.46192 16.0338C7.90378 16.0338 6.59696 14.7269 6.59696 13.1688C6.59696 11.6106 7.85352 10.3038 9.46192 10.3038ZM14.7395 9.44936C15.2924 8.89647 15.2924 7.99174 14.7395 7.43886C11.8243 4.52363 7.04932 4.52363 4.13409 7.43886C3.58121 7.99174 3.58121 8.89647 4.13409 9.44936C4.68698 10.0022 5.59171 10.0022 6.1446 9.44936C7.95405 7.63991 10.9195 7.63991 12.729 9.44936C13.0306 9.75093 13.3824 9.85146 13.7342 9.85146C14.0861 9.85146 14.4882 9.75093 14.7395 9.44936ZM2.42517 5.78019C4.28488 3.87022 6.79801 2.86496 9.46192 2.86496C12.1258 2.86496 14.5887 3.92048 16.4987 5.78019C17.0516 6.33308 17.9563 6.33308 18.5092 5.78019C19.0621 5.2273 19.0621 4.32258 18.5092 3.76969C16.0463 1.35709 12.8295 0 9.46192 0C6.04407 0 2.82727 1.30683 0.414666 3.76969C-0.138222 4.32258 -0.138222 5.2273 0.414666 5.78019C0.716241 6.08177 1.06808 6.18229 1.41992 6.18229C1.77175 6.18229 2.12359 6.0315 2.42517 5.78019Z" fill="#4D4D4D"/>
</svg>
