<svg width="17" height="23" viewBox="0 0 17 23" fill="none" xmlns="http://www.w3.org/2000/svg">
<path d="M14.7549 0.583496H1.96731C0.922177 0.583496 0 1.4442 0 2.42785V21.3018C0 21.6707 0.122953 21.9166 0.245911 22.1625C0.430347 22.4084 0.737742 22.5928 1.04513 22.5928C1.35253 22.5928 1.65992 22.4699 1.96731 22.224L7.68483 17.3672C7.86926 17.2442 8.11518 17.1212 8.36109 17.1212C8.60701 17.1212 8.85292 17.1827 9.03735 17.3672L14.7549 22.224C15.0623 22.4699 15.3696 22.5928 15.6156 22.5928C16.1074 22.5928 16.5992 22.224 16.5992 21.3633V2.48933C16.5992 1.4442 15.7385 0.583496 14.7549 0.583496Z" fill="#BBBBBB"/>
</svg>
