<svg width="15" height="17" viewBox="0 0 15 17" fill="none" xmlns="http://www.w3.org/2000/svg">
<path d="M12.1046 17H2.4212C1.77916 17 1.16341 16.7449 0.709413 16.291C0.255418 15.837 0.000366211 15.2212 0.000366211 14.5792V4.89581C0.000366211 4.46778 0.170401 4.05728 0.473064 3.75462C0.775728 3.45196 1.18623 3.28192 1.61426 3.28192H3.22815V1.66803C3.22815 1.45401 3.31317 1.24876 3.4645 1.09743C3.61583 0.946101 3.82108 0.861084 4.0351 0.861084C4.24911 0.861084 4.45436 0.946101 4.60569 1.09743C4.75702 1.24876 4.84204 1.45401 4.84204 1.66803V3.28192H9.68372V1.66803C9.68372 1.45401 9.76873 1.24876 9.92006 1.09743C10.0714 0.946101 10.2766 0.861084 10.4907 0.861084C10.7047 0.861084 10.9099 0.946101 11.0613 1.09743C11.2126 1.24876 11.2976 1.45401 11.2976 1.66803V3.28192H12.9115C13.3395 3.28192 13.75 3.45196 14.0527 3.75462C14.3554 4.05728 14.5254 4.46778 14.5254 4.89581V14.5792C14.5254 15.2212 14.2703 15.837 13.8163 16.291C13.3623 16.7449 12.7466 17 12.1046 17ZM12.9115 9.33401C12.9115 9.22701 12.869 9.12438 12.7933 9.04872C12.7177 8.97305 12.615 8.93054 12.508 8.93054H2.01773C1.91072 8.93054 1.8081 8.97305 1.73243 9.04872C1.65677 9.12438 1.61426 9.22701 1.61426 9.33401V14.5792C1.61426 14.7932 1.69927 14.9984 1.85061 15.1498C2.00194 15.3011 2.20719 15.3861 2.4212 15.3861H12.1046C12.3186 15.3861 12.5238 15.3011 12.6751 15.1498C12.8265 14.9984 12.9115 14.7932 12.9115 14.5792V9.33401Z" fill="#4D4D4D"/>
</svg>
