<svg width="7" height="13" viewBox="0 0 7 13" fill="none" xmlns="http://www.w3.org/2000/svg">
<g clip-path="url(#clip0_2731_6263)">
<path d="M4.55774 13.4389H2.41141V11.9168C1.90405 11.8199 1.47649 11.6774 1.12875 11.4892C0.786702 11.2954 0.524468 11.0987 0.342044 10.8992L0.555822 8.8213C0.789553 9.13484 1.10309 9.40848 1.49644 9.64221C1.8898 9.87024 2.3145 9.98425 2.77056 9.98425C3.22662 9.98425 3.55441 9.9358 3.75394 9.83888C3.95916 9.74197 4.06178 9.56525 4.06178 9.30871C4.06178 9.03508 3.94491 8.80135 3.71118 8.60752C3.48315 8.4137 3.08695 8.17997 2.52258 7.90633C2.38006 7.83222 2.26034 7.76951 2.16343 7.71821C2.06652 7.6669 1.93255 7.58424 1.76153 7.47023C1.59621 7.35621 1.45369 7.24505 1.33397 7.13673C1.21426 7.02842 1.08314 6.88875 0.940622 6.71773C0.803804 6.54671 0.68979 6.36998 0.598578 6.18756C0.513067 6.00514 0.438957 5.79136 0.376249 5.54623C0.319241 5.29539 0.290738 5.03316 0.290738 4.75952C0.290738 4.21795 0.373399 3.74764 0.53872 3.34859C0.709742 2.94954 0.949173 2.6303 1.25701 2.39087C1.57055 2.14573 1.95535 1.96616 2.41141 1.85215V0.381355H4.55774V1.77519C4.80857 1.82079 5.04231 1.88635 5.25893 1.97186C5.48126 2.05737 5.65513 2.14288 5.78055 2.22839C5.91167 2.30821 6.02853 2.39657 6.13115 2.49348C6.23946 2.58469 6.30787 2.6474 6.33637 2.6816C6.36488 2.71581 6.38483 2.74431 6.39623 2.76711L5.96868 4.41748C5.74635 4.15525 5.46701 3.96142 5.13067 3.836C4.80002 3.70489 4.48363 3.63933 4.18149 3.63933C3.4518 3.63933 3.08695 3.86736 3.08695 4.32342C3.08695 4.44313 3.10975 4.55145 3.15536 4.64836C3.20097 4.74527 3.27508 4.83363 3.37769 4.91344C3.4803 4.99325 3.57436 5.06166 3.65988 5.11867C3.75109 5.17568 3.87365 5.24694 4.02757 5.33245C4.18719 5.41226 4.30691 5.47782 4.38672 5.52912C5.21903 5.88257 5.82901 6.30157 6.21666 6.78614C6.61001 7.2707 6.80668 7.86073 6.80668 8.55622C6.80668 9.49114 6.61571 10.2436 6.23376 10.8137C5.85181 11.3781 5.29314 11.7458 4.55774 11.9168V13.4389Z" fill="#EAAD5F"/>
</g>
<defs>
<clipPath id="clip0_2731_6263">
<rect width="6.93333" height="13" fill="white"/>
</clipPath>
</defs>
</svg>
