<svg width="20" height="19" viewBox="0 0 20 19" fill="none" xmlns="http://www.w3.org/2000/svg">
<g clip-path="url(#clip0_109_521)">
<path d="M17.2932 15.3112C17.2932 17.0044 15.8392 18.3818 14.052 18.3818H5.26221C3.47497 18.3818 2.021 17.0044 2.021 15.3112C2.021 14.6129 2.61852 14.0468 3.35561 14.0468C4.0927 14.0468 4.69023 14.6129 4.69023 15.3112C4.69023 15.61 4.94686 15.8531 5.26221 15.8531H14.052C14.3674 15.8531 14.624 15.61 14.624 15.3112C14.624 14.6129 15.2215 14.0468 15.9586 14.0468C16.6957 14.0468 17.2932 14.6129 17.2932 15.3112ZM8.71353 12.7734C8.96406 13.0104 9.30343 13.1437 9.6573 13.1437C10.0112 13.1437 10.3505 13.0104 10.6011 12.7734L14.5412 9.04027C15.0625 8.54645 15.0625 7.74592 14.5412 7.25209C14.02 6.75862 13.1746 6.75826 12.6541 7.25209L10.9923 8.82641V1.64621C10.9923 0.947915 10.3948 0.381836 9.65768 0.381836C8.92059 0.381836 8.32306 0.947915 8.32306 1.64621V8.82678L6.66089 7.25209C6.13963 6.75862 5.29462 6.75862 4.77336 7.25209C4.2521 7.74592 4.2521 8.54645 4.77336 9.04027L8.71353 12.7734Z" fill="#666666"/>
</g>
<defs>
<clipPath id="clip0_109_521">
<rect width="19" height="18" fill="white" transform="translate(0.156982 0.381836)"/>
</clipPath>
</defs>
</svg>
