<svg width="21" height="22" viewBox="0 0 21 22" fill="none" xmlns="http://www.w3.org/2000/svg">
<path d="M17.1156 2.79338H18.4956C18.7991 2.79321 19.0997 2.85286 19.3802 2.96894C19.6606 3.08501 19.9154 3.25522 20.1301 3.46984C20.3447 3.68447 20.5149 3.93929 20.631 4.21974C20.747 4.50019 20.8067 4.80076 20.8065 5.10429V18.9369C20.8069 19.2405 20.7473 19.5411 20.6313 19.8216C20.5153 20.1022 20.3451 20.3571 20.1304 20.5717C19.9158 20.7864 19.6609 20.9566 19.3804 21.0726C19.0998 21.1886 18.7992 21.2481 18.4956 21.2478H2.81692C2.51351 21.2478 2.21307 21.188 1.93277 21.0719C1.65247 20.9557 1.39781 20.7855 1.18333 20.5709C0.968842 20.3563 0.798747 20.1015 0.682756 19.8211C0.566765 19.5408 0.507153 19.2403 0.507326 18.9369V5.10429C0.50698 4.80083 0.566475 4.50028 0.682404 4.21984C0.798334 3.93939 0.968423 3.68456 1.18294 3.46992C1.39746 3.25528 1.65219 3.08505 1.93257 2.96896C2.21294 2.85287 2.51346 2.79321 2.81692 2.79338H4.19821V1.86771C4.19821 1.62307 4.29539 1.38846 4.46837 1.21548C4.64135 1.04249 4.87597 0.945313 5.1206 0.945312C5.36524 0.945313 5.59985 1.04249 5.77283 1.21548C5.94581 1.38846 6.04299 1.62307 6.04299 1.86771V2.78682H7.88909V1.86771C7.88909 1.62307 7.98627 1.38846 8.15925 1.21548C8.33224 1.04249 8.56685 0.945313 8.81148 0.945312C9.05612 0.945313 9.29073 1.04249 9.46371 1.21548C9.6367 1.38846 9.73388 1.62307 9.73388 1.86771V2.78682H11.5787V1.86771C11.5787 1.74657 11.6025 1.62663 11.6489 1.51472C11.6952 1.40281 11.7632 1.30113 11.8488 1.21548C11.9345 1.12982 12.0362 1.06188 12.1481 1.01553C12.26 0.969171 12.3799 0.945312 12.5011 0.945312C12.6222 0.945312 12.7421 0.969171 12.854 1.01553C12.9659 1.06188 13.0676 1.12982 13.1533 1.21548C13.2389 1.30113 13.3069 1.40281 13.3532 1.51472C13.3996 1.62663 13.4234 1.74657 13.4234 1.86771V2.78682H15.2682V1.86771C15.2682 1.62307 15.3654 1.38846 15.5384 1.21548C15.7114 1.04249 15.946 0.945313 16.1906 0.945312C16.4353 0.945313 16.6699 1.04249 16.8429 1.21548C17.0158 1.38846 17.113 1.62307 17.113 1.86771V2.78682L17.1156 2.79338ZM17.1156 4.63817V5.55728C17.1156 5.80191 17.0185 6.03652 16.8455 6.20951C16.6725 6.38249 16.4379 6.47967 16.1933 6.47967C15.9486 6.47967 15.714 6.38249 15.541 6.20951C15.368 6.03652 15.2709 5.80191 15.2709 5.55728V4.63817H13.4248V5.55728C13.4248 5.67841 13.4009 5.79835 13.3545 5.91026C13.3082 6.02217 13.2402 6.12385 13.1546 6.20951C13.0689 6.29516 12.9673 6.3631 12.8554 6.40945C12.7434 6.45581 12.6235 6.47967 12.5024 6.47967C12.3812 6.47967 12.2613 6.45581 12.1494 6.40945C12.0375 6.3631 11.9358 6.29516 11.8501 6.20951C11.7645 6.12385 11.6965 6.02217 11.6502 5.91026C11.6038 5.79835 11.58 5.67841 11.58 5.55728V4.63817H9.73388V5.55728C9.73388 5.80191 9.6367 6.03652 9.46371 6.20951C9.29073 6.38249 9.05612 6.47967 8.81148 6.47967C8.56685 6.47967 8.33224 6.38249 8.15925 6.20951C7.98627 6.03652 7.88909 5.80191 7.88909 5.55728V4.63817H6.04299V5.55728C6.04299 5.80191 5.94581 6.03652 5.77283 6.20951C5.59985 6.38249 5.36524 6.47967 5.1206 6.47967C4.87597 6.47967 4.64135 6.38249 4.46837 6.20951C4.29539 6.03652 4.19821 5.80191 4.19821 5.55728V4.63817H2.81692C2.75583 4.63799 2.69531 4.6499 2.63884 4.67319C2.58237 4.69649 2.53106 4.73072 2.48786 4.77392C2.44467 4.81711 2.41044 4.86842 2.38714 4.92489C2.36384 4.98136 2.35194 5.04188 2.35211 5.10297V18.9369C2.35211 19.0602 2.40108 19.1784 2.48825 19.2656C2.57542 19.3527 2.69364 19.4017 2.81692 19.4017H18.4956C18.5567 19.4019 18.6172 19.39 18.6737 19.3667C18.7302 19.3434 18.7815 19.3091 18.8247 19.2659C18.8679 19.2227 18.9021 19.1714 18.9254 19.115C18.9487 19.0585 18.9606 18.998 18.9604 18.9369V5.10429C18.9604 4.98101 18.9115 4.86279 18.8243 4.77562C18.7371 4.68845 18.6189 4.63948 18.4956 4.63948L17.1156 4.63817ZM5.12126 10.6373C4.87662 10.6373 4.64201 10.5401 4.46903 10.3672C4.29605 10.1942 4.19887 9.95957 4.19887 9.71494C4.19887 9.4703 4.29605 9.23569 4.46903 9.0627C4.64201 8.88972 4.87662 8.79254 5.12126 8.79254H14.81C15.0546 8.79254 15.2892 8.88972 15.4622 9.0627C15.6352 9.23569 15.7324 9.4703 15.7324 9.71494C15.7324 9.95957 15.6352 10.1942 15.4622 10.3672C15.2892 10.5401 15.0546 10.6373 14.81 10.6373H5.12126ZM5.12126 13.8673C4.87662 13.8673 4.64201 13.7702 4.46903 13.5972C4.29605 13.4242 4.19887 13.1896 4.19887 12.9449C4.19887 12.7003 4.29605 12.4657 4.46903 12.2927C4.64201 12.1197 4.87662 12.0226 5.12126 12.0226H16.1939C16.4385 12.0226 16.6732 12.1197 16.8461 12.2927C17.0191 12.4657 17.1163 12.7003 17.1163 12.9449C17.1163 13.1896 17.0191 13.4242 16.8461 13.5972C16.6732 13.7702 16.4385 13.8673 16.1939 13.8673H5.12126ZM5.12126 17.0974C4.87662 17.0974 4.64201 17.0002 4.46903 16.8272C4.29605 16.6542 4.19887 16.4196 4.19887 16.175C4.19887 15.9303 4.29605 15.6957 4.46903 15.5227C4.64201 15.3498 4.87662 15.2526 5.12126 15.2526H11.58C11.8246 15.2526 12.0592 15.3498 12.2322 15.5227C12.4052 15.6957 12.5024 15.9303 12.5024 16.175C12.5024 16.4196 12.4052 16.6542 12.2322 16.8272C12.0592 17.0002 11.8246 17.0974 11.58 17.0974H5.12126Z" fill="#A27D94"/>
</svg>
