<svg width="12" height="16" viewBox="0 0 12 16" fill="none" xmlns="http://www.w3.org/2000/svg">
<path d="M6.17891 0.708984C3.0259 0.708984 0.460449 3.2078 0.460449 6.27922C0.460449 7.08036 0.628798 7.84528 0.960568 8.5529C2.39034 11.6003 5.13162 14.8177 5.93791 15.7312C5.99832 15.7994 6.08639 15.8388 6.17907 15.8388C6.27175 15.8388 6.35982 15.7994 6.42022 15.7312C7.2262 14.8179 9.96747 11.6006 11.3977 8.5529C11.7297 7.84528 11.8978 7.08036 11.8978 6.27922C11.8975 3.2078 9.33207 0.708984 6.17891 0.708984ZM6.17891 9.17242C4.54104 9.17242 3.2084 7.87439 3.2084 6.27906C3.2084 4.68359 4.54104 3.38556 6.17891 3.38556C7.81677 3.38556 9.14942 4.68359 9.14942 6.27906C9.14957 7.87439 7.81693 9.17242 6.17891 9.17242Z" fill="#989898"/>
</svg>
