<svg width="22" height="22" viewBox="0 0 22 22" fill="none" xmlns="http://www.w3.org/2000/svg">
<g clip-path="url(#clip0_129_8855)">
<path d="M15.0722 13.0398C16.3011 13.0398 17.3006 12.0402 17.3006 10.8115V4.06546C17.3006 2.83671 16.3011 1.83691 15.0722 1.83691H2.72798C1.49944 1.83691 0.5 2.83671 0.5 4.06546V10.8115C0.5 12.0402 1.49944 13.0398 2.72798 13.0398H4.3495V15.3723C4.3495 15.656 4.52033 15.9116 4.7823 16.0201C4.86913 16.056 4.9602 16.0734 5.05042 16.0734C5.23285 16.0734 5.41223 16.0022 5.54636 15.868L8.37401 13.0398H15.0722Z" fill="#8F7B62"/>
<path d="M19.5496 7.6709H18.4222V10.8116C18.4222 12.6588 16.9195 14.1615 15.0723 14.1615H8.83865L7.52795 15.4726C7.68591 16.3909 8.48724 17.0919 9.44984 17.0919H14.8775L17.1536 19.3684C17.2877 19.5025 17.4671 19.5738 17.6495 19.5738C17.7398 19.5738 17.8308 19.5562 17.9177 19.5203C18.1796 19.4118 18.3504 19.1563 18.3504 18.8727V17.0918H19.5496C20.6252 17.0918 21.5001 16.2166 21.5001 15.141V9.62149C21.5 8.54597 20.6251 7.6709 19.5496 7.6709Z" fill="#8F7B62"/>
</g>
<defs>
<clipPath id="clip0_129_8855">
<rect width="21" height="21" fill="white" transform="translate(0.5 0.205566)"/>
</clipPath>
</defs>
</svg>
