<svg width="11" height="12" viewBox="0 0 11 12" fill="none" xmlns="http://www.w3.org/2000/svg">
<path d="M0.799382 4.72525C1.35598 2.64754 3.33702 0.914658 5.43179 0.598414C5.53025 0.583575 5.63089 0.596432 5.72246 0.635546C5.81403 0.67466 5.8929 0.738487 5.95025 0.819882C6.0076 0.901276 6.04117 0.997027 6.04719 1.09642C6.05322 1.1958 6.03146 1.29491 5.98436 1.38263C4.97058 3.26514 4.88736 4.87593 5.69681 6.27737C6.50573 7.67974 7.94268 8.41274 10.0795 8.47635C10.1792 8.47929 10.276 8.50992 10.3592 8.5648C10.4424 8.61969 10.5086 8.69667 10.5505 8.7871C10.5924 8.87753 10.6082 8.97784 10.5963 9.07678C10.5844 9.17572 10.5451 9.26939 10.4829 9.34727C9.16171 11.0027 6.67059 11.852 4.59242 11.2952C1.73083 10.5288 0.0325631 7.58658 0.799382 4.72525Z" fill="#EAAD5F"/>
</svg>
