<svg width="21" height="22" viewBox="0 0 21 22" fill="none" xmlns="http://www.w3.org/2000/svg">
<path d="M19.9844 10.4503L10.8024 1.26577C10.6305 1.0936 10.4263 0.957009 10.2015 0.863817C9.97679 0.770624 9.73588 0.722656 9.49258 0.722656C9.24927 0.722656 9.00836 0.770624 8.78361 0.863817C8.55887 0.957009 8.3547 1.0936 8.18279 1.26577L3.15395 6.29461C2.80628 6.64657 2.61133 7.12136 2.61133 7.61608C2.61133 8.1108 2.80628 8.58559 3.15395 8.93755L3.98778 9.79844H5.91003L4.11569 7.9795C4.06833 7.93063 4.03113 7.87286 4.00622 7.80954C3.98131 7.74621 3.9692 7.67858 3.97056 7.61055C3.96991 7.47812 4.02163 7.3508 4.11446 7.25635L4.77857 6.61314L7.93436 9.79352H10.961L6.2876 5.10043L9.13838 2.23858C9.18519 2.19086 9.24108 2.15299 9.30276 2.12722C9.36444 2.10145 9.43065 2.0883 9.4975 2.08854C9.56215 2.088 9.62628 2.10021 9.68621 2.12448C9.74614 2.14875 9.8007 2.1846 9.84677 2.22997L19.03 11.412C19.0759 11.4576 19.1124 11.5118 19.1373 11.5716C19.1622 11.6313 19.175 11.6953 19.1752 11.76C19.1688 11.8925 19.1121 12.0174 19.0165 12.1093L18.4963 12.6173V14.5395L19.9795 13.0698C20.3272 12.723 20.5231 12.2522 20.524 11.7611C20.525 11.2699 20.3309 10.7984 19.9844 10.4503V10.4503Z" fill="#938472"/>
<path d="M15.6762 10.6543H2.68781C2.1928 10.6516 1.71653 10.8434 1.36159 11.1885C1.00665 11.5335 0.801441 12.0042 0.790161 12.4991V17.4111H17.505V12.5016C17.5074 12.2598 17.4619 12.0201 17.3711 11.796C17.2803 11.572 17.146 11.3682 16.9759 11.1965C16.8059 11.0247 16.6034 10.8883 16.3804 10.7953C16.1573 10.7022 15.9179 10.6543 15.6762 10.6543ZM5.32952 15.741C4.98116 15.7411 4.64641 15.6057 4.39607 15.3634C4.20522 15.5483 3.96413 15.6729 3.70289 15.7217C3.44166 15.7705 3.17185 15.7412 2.92714 15.6376C2.68243 15.5339 2.47367 15.3605 2.3269 15.139C2.18013 14.9174 2.10186 14.6576 2.10186 14.3918C2.10186 14.1261 2.18013 13.8662 2.3269 13.6447C2.47367 13.4231 2.68243 13.2497 2.92714 13.1461C3.17185 13.0425 3.44166 13.0132 3.70289 13.062C3.96413 13.1107 4.20522 13.2353 4.39607 13.4203C4.555 13.2647 4.74985 13.1507 4.96335 13.0883C5.17685 13.026 5.40242 13.0173 5.6201 13.0629C5.83777 13.1086 6.04084 13.2072 6.21131 13.3501C6.38179 13.4929 6.51441 13.6756 6.59745 13.8819C6.68048 14.0882 6.71137 14.3119 6.68736 14.533C6.66336 14.7541 6.58521 14.9659 6.45984 15.1496C6.33446 15.3333 6.16573 15.4832 5.96858 15.5862C5.77142 15.6891 5.55193 15.7419 5.32952 15.7397V15.741Z" fill="#938472"/>
<path d="M0.790161 19.6124C0.800145 20.1089 1.00451 20.5817 1.35935 20.9292C1.71419 21.2767 2.19118 21.4711 2.68781 21.4707H15.6762C16.1653 21.4668 16.6328 21.2688 16.9759 20.9204C17.3191 20.5719 17.5098 20.1014 17.5062 19.6124V19.5029H0.790161V19.6124Z" fill="#938472"/>
</svg>
