<svg width="14" height="14" viewBox="0 0 14 14" fill="none" xmlns="http://www.w3.org/2000/svg">
<g clip-path="url(#clip0_100_2762)">
<path d="M12.651 6.44164H8.26853V2.0592C8.26853 1.46996 7.78978 0.991211 7.20054 0.991211C6.61131 0.991211 6.13255 1.46996 6.13255 2.0592V6.44164H1.75012C1.16088 6.44164 0.682129 6.92039 0.682129 7.50962C0.682129 8.09886 1.16088 8.57761 1.75012 8.57761H6.13255V12.96C6.13255 13.5493 6.61131 14.028 7.20054 14.028C7.78978 14.028 8.26853 13.5493 8.26853 12.96V8.57761H12.651C13.2402 8.57761 13.719 8.09886 13.719 7.50962C13.6821 6.92039 13.2402 6.44164 12.651 6.44164Z" fill="#454F63"/>
</g>
<defs>
<clipPath id="clip0_100_2762">
<rect width="13" height="13" fill="white" transform="translate(0.682129 0.991211)"/>
</clipPath>
</defs>
</svg>
