<svg width="19" height="13" viewBox="0 0 19 13" fill="none" xmlns="http://www.w3.org/2000/svg">
<g clip-path="url(#clip0_2553_6264)">
<path d="M16.1984 9.92846C15.9953 10.1455 15.7414 10.3082 15.4367 10.3082C15.132 10.3082 14.8781 10.1997 14.675 9.92846C14.0657 9.22315 13.2024 8.73486 12.1869 8.73486C11.2221 8.73486 10.3588 9.1689 9.74949 9.92846C9.54638 10.1455 9.29248 10.3082 8.98781 10.3082C8.68314 10.3082 8.42925 10.1997 8.22613 9.92846C7.61679 9.22315 6.75355 8.73486 5.78876 8.73486C4.82397 8.73486 3.96073 9.1689 3.35139 9.92846C3.14827 10.1455 2.89438 10.3082 2.58971 10.3082C2.28504 10.3082 2.03114 10.1997 1.82803 9.92846C1.37102 9.33166 0.7109 8.95188 0 8.84337V10.9593C0.152336 11.0678 0.304672 11.1763 0.406229 11.2848C0.964793 11.9359 1.72647 12.3157 2.58971 12.3157C3.40217 12.3157 4.21462 11.9359 4.77319 11.2848C5.02708 10.9593 5.38253 10.7965 5.78876 10.7965C6.19499 10.7965 6.55044 10.9593 6.80433 11.2848C7.3629 11.9359 8.12458 12.3157 8.98781 12.3157C9.80027 12.3157 10.6127 11.9359 11.1713 11.2848C11.4252 10.9593 11.7806 10.7965 12.1869 10.7965C12.7454 10.7965 13.0501 11.1221 13.2024 11.2848C13.761 11.9359 14.5735 12.3699 15.3859 12.3699C16.2491 12.3699 17.0108 11.9901 17.5694 11.2848C17.6709 11.1763 17.8741 10.9593 18.1787 10.8508V8.78912C17.4171 8.89763 16.7062 9.33166 16.1984 9.92846Z" fill="#4D4D4D"/>
<path d="M14.1669 7.92135C15.4569 7.92135 16.5027 6.80398 16.5027 5.42564C16.5027 4.0473 15.4569 2.92993 14.1669 2.92993C12.8768 2.92993 11.8311 4.0473 11.8311 5.42564C11.8311 6.80398 12.8768 7.92135 14.1669 7.92135Z" fill="#4D4D4D"/>
<path d="M8.73409 9.49427C8.88643 9.65703 9.14032 9.65703 9.29266 9.49427C9.902 8.78896 10.7145 8.30067 11.5777 8.13791C11.6285 7.75812 11.6285 7.37834 11.4761 6.94431C11.4254 6.72729 10.6637 4.06882 10.6637 4.06882C10.6637 4.06882 10.5621 3.52627 10.8668 3.03798C11.1715 2.54969 11.8316 2.22416 12.7456 2.0614C13.2534 1.95289 13.6088 1.4646 13.5581 0.922055C13.5073 0.37951 12.9995 -0.000271787 12.4917 0.0539827C11.0191 0.271001 9.902 0.922055 9.29266 1.89864C8.53098 3.14649 8.73409 4.39434 8.78487 4.55711L8.98798 5.42518C8.88643 5.42518 8.73409 5.47943 8.63253 5.53369L4.77336 6.99856C3.91012 7.32409 3.35156 8.13791 3.30078 9.06023C4.01168 8.46343 4.87492 8.08365 5.78893 8.08365C6.90606 8.08365 7.97241 8.57194 8.73409 9.49427Z" fill="#4D4D4D"/>
</g>
<defs>
<clipPath id="clip0_2553_6264">
<rect width="18.2295" height="12.37" fill="white"/>
</clipPath>
</defs>
</svg>
