<svg width="16" height="16" viewBox="0 0 16 16" fill="none" xmlns="http://www.w3.org/2000/svg">
<path d="M3.30556 8H0.694444C0.310913 8 0 8.31091 0 8.69444V15.3056C0 15.6891 0.310913 16 0.694444 16H3.30556C3.68909 16 4 15.6891 4 15.3056V8.69444C4 8.31091 3.68909 8 3.30556 8Z" fill="#4D4D4D"/>
<path d="M9.30555 0H6.69445C6.31091 0 6 0.310913 6 0.694444V15.3056C6 15.6891 6.31091 16 6.69445 16H9.30555C9.68909 16 10 15.6891 10 15.3056V0.694444C10 0.310913 9.68909 0 9.30555 0Z" fill="#4D4D4D"/>
<path d="M15.3056 5.33325H12.6944C12.3109 5.33325 12 5.64417 12 6.0277V15.3055C12 15.689 12.3109 15.9999 12.6944 15.9999H15.3056C15.6891 15.9999 16 15.689 16 15.3055V6.0277C16 5.64417 15.6891 5.33325 15.3056 5.33325Z" fill="#4D4D4D"/>
</svg>
