<svg width="21" height="20" viewBox="0 0 21 20" fill="none" xmlns="http://www.w3.org/2000/svg">
<path d="M17.912 7.72385L17.8155 7.69093L17.4489 6.81583L17.4887 6.72616C18.5998 4.20754 18.5227 4.13149 18.3388 3.94989L16.8599 2.50387C16.7888 2.43956 16.6969 2.40325 16.6011 2.40172C15.7165 2.60921 14.8663 2.94292 14.0768 3.39259L13.9894 3.43232L13.0814 3.06911L13.0484 2.97831C12.0269 0.430176 11.9134 0.430176 11.6603 0.430176H9.56731C9.31193 0.430176 9.19616 0.430176 8.2416 2.98285L8.20528 3.07592L7.30748 3.44253L7.22122 3.40735C6.39718 3.00898 5.53564 2.69341 4.64925 2.46528C4.55364 2.46671 4.46176 2.50257 4.39046 2.56629L2.90925 4.01572C2.72084 4.20073 2.64366 4.27905 3.81727 6.74546L3.86041 6.83739L3.49266 7.71136L3.40299 7.74655C0.790161 8.75332 0.790161 8.85093 0.790161 9.11426V11.1641C0.790161 11.4274 0.790161 11.5364 3.40072 12.4728L3.49379 12.5057L3.86154 13.3774L3.82181 13.4659C2.71062 15.9857 2.781 16.0549 2.97055 16.2422L4.44608 17.6894C4.51828 17.7532 4.61077 17.7894 4.70713 17.7915C5.5916 17.5836 6.44168 17.2499 7.23143 16.8006L7.31883 16.7598L8.22685 17.1253L8.26203 17.2161C9.2915 19.7631 9.39706 19.7631 9.65358 19.7631H11.7488C12.0122 19.7631 12.1211 19.7631 13.0757 17.2093L13.1109 17.1162L14.0109 16.753L14.0961 16.7882C14.9188 17.1868 15.7793 17.5024 16.6646 17.7302C16.7606 17.7291 16.853 17.6932 16.9245 17.6292L18.4103 16.1764C18.5976 15.9902 18.6748 15.9131 17.5023 13.4523L17.4591 13.3593L17.8258 12.4887L17.9132 12.4546C20.5237 11.4422 20.5237 11.3434 20.5237 11.0801V9.02913C20.526 8.7658 20.526 8.65684 17.912 7.72385ZM10.6569 13.4217C10.0024 13.4087 9.36621 13.2028 8.82823 12.8297C8.29025 12.4566 7.8744 11.933 7.63285 11.3245C7.39129 10.716 7.33477 10.0497 7.47039 9.4092C7.606 8.76871 7.92771 8.18251 8.39516 7.72414C8.86261 7.26576 9.455 6.95561 10.098 6.83258C10.7411 6.70955 11.4061 6.77912 12.0097 7.03256C12.6134 7.286 13.1288 7.71203 13.4912 8.25722C13.8537 8.80242 14.0471 9.4425 14.0473 10.0972C14.0374 10.9872 13.6751 11.8369 13.0398 12.4603C12.4046 13.0837 11.5481 13.4298 10.6581 13.4228L10.6569 13.4217Z" fill="#989EA7"/>
</svg>
