<svg width="22" height="22" viewBox="0 0 22 22" fill="none" xmlns="http://www.w3.org/2000/svg">
<g clip-path="url(#clip0_2_314)">
<path d="M10.9017 3.90273C11.3651 3.90273 11.7384 3.52539 11.7384 3.06602V2.12676C11.7384 1.66328 11.3651 1.29004 10.9017 1.29004C10.4382 1.29004 10.0649 1.66738 10.0649 2.12676V3.06191C10.0649 3.52949 10.4382 3.90273 10.9017 3.90273Z" fill="#A8A8A8"/>
<path d="M19.1707 12.1266H20.11C20.5734 12.1266 20.9467 11.7492 20.9467 11.2898C20.9467 10.8305 20.5734 10.4531 20.11 10.4531H19.1707C18.7072 10.4531 18.334 10.8305 18.334 11.2898C18.334 11.7492 18.7113 12.1266 19.1707 12.1266Z" fill="#A8A8A8"/>
<path d="M2.63311 12.1266C3.09658 12.1266 3.46982 11.7492 3.46982 11.2898C3.46982 10.8305 3.09658 10.4531 2.63311 10.4531H1.68975C1.22627 10.4531 0.853027 10.8305 0.853027 11.2898C0.853027 11.7492 1.22627 12.1266 1.68975 12.1266H2.63311Z" fill="#A8A8A8"/>
<path d="M17.3411 6.02754L18.0056 5.36308C18.3337 5.03496 18.3337 4.50586 18.0056 4.17773C17.6774 3.84961 17.1483 3.84961 16.8202 4.17773L16.1558 4.84219C15.8276 5.17031 15.8276 5.69941 16.1558 6.02754C16.4839 6.35566 17.013 6.35566 17.3411 6.02754Z" fill="#A8A8A8"/>
<path d="M4.4623 6.02725C4.79043 6.35537 5.31953 6.35537 5.64766 6.02725C5.97578 5.69912 5.97578 5.17002 5.64766 4.84189L4.9832 4.17334C4.65508 3.84521 4.12598 3.84521 3.79785 4.17334C3.46973 4.50147 3.46973 5.03057 3.79785 5.35869L4.4623 6.02725Z" fill="#A8A8A8"/>
<path d="M2.69869 15.7314C4.72486 14.2877 6.78385 14.9357 7.57545 15.2803L7.60006 15.2885C9.11354 15.9447 10.709 16.2728 12.2512 16.2728C13.777 16.2728 15.2495 15.9488 16.5333 15.3049C17.5956 14.7717 18.945 14.6732 19.7243 14.8537C20.1754 14.9562 20.6266 14.6732 20.7333 14.2221C20.8358 13.7709 20.5528 13.3156 20.1016 13.2131C19.5028 13.0736 18.6907 13.0408 17.8335 13.168C17.9893 12.5773 18.0713 11.9662 18.0713 11.3551C18.0713 7.42578 14.8598 4.22656 10.91 4.22656C6.96022 4.22656 3.74869 7.42578 3.74869 11.3551C3.74869 12.0154 3.84303 12.6758 4.0235 13.3074C3.28522 13.4797 2.50592 13.8078 1.73072 14.3574C1.35338 14.6281 1.26314 15.1531 1.53385 15.5305C1.79225 15.916 2.31725 16.0021 2.69869 15.7314ZM10.9018 5.9041C13.9288 5.9041 16.3897 8.34863 16.3897 11.3551C16.3897 12.2041 16.1969 13.0203 15.8155 13.7791C15.7991 13.7873 15.7868 13.7914 15.7704 13.7996C13.6335 14.8742 10.828 14.8537 8.26451 13.7422L8.244 13.734C7.73541 13.5125 6.82897 13.1967 5.72154 13.1475C5.51647 12.5732 5.41393 11.9703 5.41393 11.351C5.41393 8.34863 7.87486 5.9041 10.9018 5.9041Z" fill="#A8A8A8"/>
<path d="M20.2618 18.324C19.1831 18.0779 17.4276 18.164 15.9387 18.9146C13.8018 19.9892 10.9963 19.9687 8.43287 18.8572L8.41236 18.849C7.35826 18.3896 4.61432 17.5283 1.89088 19.4724C1.51354 19.7431 1.4233 20.2681 1.694 20.6455C1.96471 21.0228 2.48971 21.1131 2.86705 20.8424C4.89322 19.3986 6.95221 20.0466 7.74381 20.3912L7.76842 20.3994C9.2819 21.0556 10.8774 21.3838 12.4196 21.3838C13.9454 21.3838 15.4178 21.0597 16.6975 20.4158C17.7598 19.8826 19.1092 19.7841 19.8885 19.9646C20.3397 20.0672 20.7909 19.7841 20.8975 19.333C20.996 18.8818 20.7129 18.4306 20.2618 18.324Z" fill="#A8A8A8"/>
</g>
<defs>
<clipPath id="clip0_2_314">
<rect width="21" height="21" fill="white" transform="translate(0.401855 0.838867)"/>
</clipPath>
</defs>
</svg>
