<svg width="21" height="20" viewBox="0 0 21 20" fill="none" xmlns="http://www.w3.org/2000/svg">
<path d="M17.3841 18.3464C14.731 18.0479 12.4861 17.849 10.3433 17.849C11.0575 16.1579 11.4657 13.8699 11.4657 11.4825C11.4657 6.11076 9.62898 2.03223 7.18 2.03223C4.73102 2.03223 2.89428 6.11076 2.89428 11.4825C2.89428 13.9694 3.30245 16.3568 4.11877 18.0479C3.2004 18.1474 2.18 18.2469 1.15959 18.3464C0.649384 18.3464 0.343262 18.7443 0.343262 19.1422C0.343262 19.5401 0.751425 19.8385 1.15959 19.8385C6.36367 19.2417 10.5473 19.0427 17.18 19.8385H17.282C17.6902 19.8385 17.9963 19.5401 17.9963 19.1422C18.0984 18.7443 17.7922 18.3464 17.3841 18.3464ZM4.11877 11.4825C4.11877 7.30448 5.4453 4.02176 6.66979 3.4249V17.849C6.26163 17.849 5.75143 17.849 5.34326 17.9485C4.52694 16.3568 4.11877 13.9694 4.11877 11.4825ZM7.48612 17.849V3.4249C8.81265 4.02176 10.0371 7.30448 10.0371 11.4825C10.0371 13.9694 9.62898 16.2574 8.81265 17.849C8.40449 17.849 7.99632 17.849 7.48612 17.849Z" fill="#ABABAB"/>
<path d="M16.67 6.05862C17.6584 6.05862 18.4596 5.27751 18.4596 4.31398C18.4596 3.35044 17.6584 2.56934 16.67 2.56934C15.6816 2.56934 14.8804 3.35044 14.8804 4.31398C14.8804 5.27751 15.6816 6.05862 16.67 6.05862Z" fill="#ABABAB"/>
<path d="M12.8954 4.6485H14.1535C14.2679 4.6485 14.4966 4.537 14.4966 4.31399C14.4966 4.09099 14.3823 3.97949 14.1535 3.97949H12.8954C12.781 3.97949 12.5522 4.09099 12.5522 4.31399C12.5522 4.537 12.781 4.6485 12.8954 4.6485Z" fill="#ABABAB"/>
<path d="M20.444 3.97949H19.1859C19.0715 3.97949 18.8428 4.09099 18.8428 4.314C18.8428 4.537 18.9571 4.6485 19.1859 4.6485H20.444C20.5584 4.6485 20.7872 4.537 20.7872 4.314C20.7872 4.09099 20.6728 3.97949 20.444 3.97949Z" fill="#ABABAB"/>
<path d="M16.784 2.19564C16.8984 2.19564 17.1272 2.08414 17.1272 1.86113V0.746124C17.1272 0.634623 17.0128 0.411621 16.784 0.411621C16.5553 0.411621 16.4409 0.523122 16.4409 0.746124V1.97263C16.4409 2.08414 16.5553 2.19564 16.784 2.19564Z" fill="#ABABAB"/>
<path d="M16.4409 6.76712V7.99363C16.4409 8.10513 16.5553 8.32813 16.784 8.32813C17.0128 8.32813 17.1272 8.21663 17.1272 7.99363V6.76712C17.1272 6.65562 17.0128 6.43262 16.784 6.43262C16.5553 6.43262 16.4409 6.65562 16.4409 6.76712Z" fill="#ABABAB"/>
<path d="M14.7254 5.87513L13.8104 6.76714C13.696 6.87864 13.696 7.10164 13.8104 7.21314C13.8104 7.21314 13.9248 7.32464 14.0391 7.32464C14.1535 7.32464 14.1535 7.32464 14.2679 7.21314L15.1829 6.32113C15.2973 6.20963 15.2973 5.98663 15.1829 5.87513C15.0685 5.76363 14.8398 5.76363 14.7254 5.87513Z" fill="#ABABAB"/>
<path d="M18.4996 2.86468C18.614 2.86468 18.614 2.86468 18.7283 2.75318L19.6433 1.86117C19.7577 1.74967 19.7577 1.52667 19.6433 1.41517C19.529 1.30367 19.3002 1.30367 19.1858 1.41517L18.2708 2.30718C18.1565 2.41868 18.1565 2.64168 18.2708 2.75318C18.3852 2.86468 18.3852 2.86468 18.4996 2.86468Z" fill="#ABABAB"/>
<path d="M14.7254 2.75301C14.7254 2.75301 14.8398 2.86451 14.9541 2.86451C15.0685 2.86451 15.0685 2.86451 15.1829 2.75301C15.2973 2.64151 15.2973 2.4185 15.1829 2.307L14.2679 1.5265C14.1535 1.415 13.9248 1.415 13.8104 1.5265C13.696 1.638 13.696 1.861 13.8104 1.9725L14.7254 2.75301Z" fill="#ABABAB"/>
<path d="M18.7283 5.7638C18.614 5.6523 18.3852 5.6523 18.2708 5.7638C18.1565 5.8753 18.1565 6.0983 18.2708 6.2098L19.1858 7.10181C19.1858 7.10181 19.3002 7.21331 19.4146 7.21331C19.529 7.21331 19.529 7.21331 19.6433 7.10181C19.7577 6.99031 19.7577 6.76731 19.6433 6.65581L18.7283 5.7638Z" fill="#ABABAB"/>
</svg>
