<svg width="39" height="38" viewBox="0 0 39 38" fill="none" xmlns="http://www.w3.org/2000/svg">
<path d="M11.2944 19.7769C15.8565 19.7769 19.5679 16.1599 19.5679 11.7138C19.5679 7.26766 15.8565 3.65039 11.2944 3.65039C6.73165 3.65039 3.01953 7.26755 3.01953 11.7138C3.01942 16.1599 6.73154 19.7769 11.2944 19.7769Z" fill="#EAAD5F"/>
<path d="M21.223 24.1606C20.9949 23.0348 19.895 22.1528 18.719 22.1528H3.8696C2.69356 22.1528 1.59369 23.0348 1.36558 24.1607L0.0482467 30.6662C-0.168015 31.7335 0.361881 33.0816 1.2547 33.7352C1.48941 33.907 7.05194 37.9435 11.2943 37.9435C15.5366 37.9435 21.0992 33.9071 21.334 33.7352C22.2267 33.0816 22.7566 31.7335 22.5403 30.6663L21.223 24.1606Z" fill="#EAAD5F"/>
<path d="M29.3528 13.9811C33.1679 13.9811 36.2717 10.9563 36.2717 7.23813C36.2717 3.51989 33.1679 0.494873 29.3528 0.494873C25.5369 0.494873 22.4326 3.51989 22.4326 7.23813C22.4326 10.9562 25.5369 13.9811 29.3528 13.9811Z" fill="#EAAD5F"/>
<path d="M38.9582 23.6485L37.8427 18.1415C37.6424 17.152 36.6747 16.377 35.6399 16.377H23.066C22.0312 16.377 21.0864 17.152 20.8858 18.1414L20.7949 18.7017V18.754C20.7949 18.8245 20.7947 19.4548 21.569 19.8572C22.8461 20.5211 23.6946 21.5866 23.9364 22.7805L25.0204 28.1333L25.0365 28.1941C25.1871 28.6489 25.5026 28.9895 25.9247 29.1532C27.2164 29.6542 28.3698 29.9083 29.353 29.9083C32.973 29.9083 37.7049 26.4745 37.9046 26.3283C38.6841 25.7578 39.147 24.5806 38.9582 23.6485Z" fill="#EAAD5F"/>
</svg>
