<svg width="25" height="41" viewBox="0 0 25 41" fill="none" xmlns="http://www.w3.org/2000/svg">
<path d="M20.5513 7.45062H20.3348V3.66331C20.3348 2.36481 19.4692 1.28272 18.2789 0.849882C18.1707 0.525256 17.846 0.308838 17.5214 0.308838H7.89082C7.56619 0.308838 7.24156 0.525256 7.13335 0.849882C5.94305 1.28272 5.07738 2.36481 5.07738 3.66331V7.45062H4.86096C2.58858 7.45062 0.749023 9.29017 0.749023 11.5626V35.3685C0.749023 37.6409 2.58858 39.4804 4.86096 39.4804H6.05126V39.5887V39.8051C6.05126 40.0215 6.26768 40.1297 6.37589 40.1297H7.67439C7.89081 40.1297 7.99902 39.9133 7.99902 39.8051C7.99902 40.0215 8.21544 40.1297 8.32365 40.1297H9.62216C9.83858 40.1297 9.94678 39.9133 9.94678 39.8051V39.5887V39.4804H15.0326V39.5887V39.8051C15.0326 40.0215 15.249 40.1297 15.3572 40.1297H16.6557C16.8721 40.1297 16.9804 39.9133 16.9804 39.8051C16.9804 40.0215 17.1968 40.1297 17.305 40.1297H18.6035C18.8199 40.1297 18.9281 39.9133 18.9281 39.8051V39.5887V39.4804H20.1184C22.3908 39.4804 24.2304 37.6409 24.2304 35.3685V11.5626C24.6632 9.29017 22.8236 7.45062 20.5513 7.45062ZM6.15947 3.66331C6.15947 2.90585 6.70052 2.14839 7.34977 1.93197C7.45798 2.04018 7.6744 2.14839 7.89082 2.14839H17.5214C17.7378 2.14839 17.9542 2.04018 18.0624 1.93197C18.7117 2.2566 19.2528 2.90585 19.2528 3.66331V7.45062H6.15947V3.66331ZM8.10723 39.4804C8.10723 39.3722 8.10723 39.4804 8.10723 39.4804C8.10723 39.3722 8.10723 39.4804 8.10723 39.4804ZM17.305 39.4804C17.305 39.3722 17.305 39.4804 17.305 39.4804C17.305 39.3722 17.305 39.4804 17.305 39.4804Z" fill="#EAAD5F"/>
</svg>
