<svg width="28" height="39" viewBox="0 0 28 39" fill="none" xmlns="http://www.w3.org/2000/svg">
<path d="M21.8209 9.64468V8.36964C21.8209 3.9263 18.3211 0.309814 14.0211 0.309814C9.72109 0.309814 6.22126 3.9263 6.22126 8.36964V9.64468H0.552734V33.0437C0.552734 35.8488 2.75882 38.1284 5.47343 38.1284H22.5687C25.2834 38.1284 27.4894 35.8488 27.4894 33.0437V9.64468H21.8209ZM8.14317 15.5794C7.23083 15.5794 6.49048 14.8144 6.49048 13.8716C6.49048 12.9289 7.23083 12.1639 8.14317 12.1639C9.05552 12.1639 9.79587 12.9289 9.79587 13.8716C9.79587 14.8221 9.05552 15.5794 8.14317 15.5794ZM18.2239 9.64468H9.81831V8.36964C9.81831 5.9741 11.7028 4.02676 14.0211 4.02676C16.3394 4.02676 18.2239 5.9741 18.2239 8.36964V9.64468ZM19.899 15.5794C18.9867 15.5794 18.2463 14.8144 18.2463 13.8716C18.2463 12.9289 18.9867 12.1639 19.899 12.1639C20.8114 12.1639 21.5517 12.9289 21.5517 13.8716C21.5442 14.8221 20.8114 15.5794 19.899 15.5794Z" fill="#EAAD5F"/>
</svg>
