<svg width="38" height="39" viewBox="0 0 38 39" fill="none" xmlns="http://www.w3.org/2000/svg">
<path d="M11.4 30.6192C9.31 30.6192 7.6 32.3292 7.6 34.4192C7.6 36.5092 9.31 38.2192 11.4 38.2192C13.49 38.2192 15.2 36.5092 15.2 34.4192C15.2 32.3292 13.49 30.6192 11.4 30.6192ZM0 0.219238V4.01924H3.8L10.64 18.4592L7.98 23.0192C7.79 23.5892 7.6 24.3492 7.6 24.9192C7.6 27.0092 9.31 28.7192 11.4 28.7192H34.2V24.9192H12.16C11.97 24.9192 11.78 24.7292 11.78 24.5392V24.3492L13.49 21.1192H27.55C29.07 21.1192 30.21 20.3592 30.78 19.2192L37.62 6.86924C38 6.48924 38 6.29924 38 5.91924C38 4.77924 37.24 4.01924 36.1 4.01924H7.98L6.27 0.219238H0ZM30.4 30.6192C28.31 30.6192 26.6 32.3292 26.6 34.4192C26.6 36.5092 28.31 38.2192 30.4 38.2192C32.49 38.2192 34.2 36.5092 34.2 34.4192C34.2 32.3292 32.49 30.6192 30.4 30.6192Z" fill="#EAAD5F"/>
</svg>
