<svg width="13" height="22" viewBox="0 0 13 22" fill="none" xmlns="http://www.w3.org/2000/svg">
<path d="M10.7287 4.52531H10.619V2.60482C10.619 1.94636 10.18 1.39765 9.57641 1.17817C9.52153 1.01355 9.35692 0.903809 9.19231 0.903809H4.30877C4.14415 0.903809 3.97954 1.01355 3.92466 1.17817C3.32108 1.39765 2.88211 1.94636 2.88211 2.60482V4.52531H2.77237C1.62007 4.52531 0.687256 5.45813 0.687256 6.61042V18.6821C0.687256 19.8344 1.62007 20.7672 2.77237 20.7672H3.37595V20.8221V20.9318C3.37595 21.0416 3.4857 21.0964 3.54057 21.0964H4.19902C4.30876 21.0964 4.36364 20.9867 4.36364 20.9318C4.36364 21.0416 4.47338 21.0964 4.52825 21.0964H5.18671C5.29645 21.0964 5.35132 20.9867 5.35132 20.9318V20.8221V20.7672H7.93027V20.8221V20.9318C7.93027 21.0416 8.04001 21.0964 8.09488 21.0964H8.75334C8.86308 21.0964 8.91795 20.9867 8.91795 20.9318C8.91795 21.0416 9.0277 21.0964 9.08257 21.0964H9.74102C9.85076 21.0964 9.90564 20.9867 9.90564 20.9318V20.8221V20.7672H10.5092C11.6615 20.7672 12.5943 19.8344 12.5943 18.6821V6.61042C12.8138 5.45813 11.881 4.52531 10.7287 4.52531ZM3.43082 2.60482C3.43082 2.22072 3.70518 1.83662 4.03441 1.72688C4.08928 1.78175 4.19902 1.83662 4.30877 1.83662H9.19231C9.30205 1.83662 9.41179 1.78175 9.46667 1.72688C9.79589 1.89149 10.0703 2.22072 10.0703 2.60482V4.52531H3.43082V2.60482ZM4.41851 20.7672C4.41851 20.7123 4.41851 20.7672 4.41851 20.7672C4.41851 20.7123 4.41851 20.7672 4.41851 20.7672ZM9.08257 20.7672C9.08257 20.7123 9.08257 20.7672 9.08257 20.7672C9.08257 20.7123 9.08257 20.7672 9.08257 20.7672Z" fill="white"/>
</svg>
