<svg width="22" height="22" viewBox="0 0 22 22" fill="none" xmlns="http://www.w3.org/2000/svg">
<g clip-path="url(#clip0_129_8880)">
<path d="M11.0001 1.27002C5.48115 1.27002 0.990967 5.7602 0.990967 11.2791C0.990967 16.7981 5.48115 21.2882 11.0001 21.2882C16.519 21.2882 21.0092 16.7981 21.0092 11.2791C21.0092 5.7602 16.519 1.27002 11.0001 1.27002ZM18.9101 14.5818C17.9261 16.9299 15.9258 18.7506 13.4618 19.4905C13.5059 19.4085 13.5487 19.3256 13.5901 19.2417C13.8018 18.8133 14.0242 18.5113 14.3975 18.21C14.6832 17.9793 15.2442 17.622 15.1525 17.1714C15.0863 16.8457 14.7145 16.7121 14.4336 16.6325C13.9878 16.5062 13.511 16.4735 13.051 16.4416C12.6526 16.4138 12.2389 16.428 11.85 16.3288C11.268 16.1807 11.1368 15.6769 11.1 15.1458C11.0672 14.6737 11.0742 14.1883 10.842 13.7611C10.5431 13.2112 9.85499 13.0548 9.28442 13.0024C8.80278 12.9583 8.32173 12.9815 7.84269 12.9013C7.38181 12.8241 6.94532 12.6622 6.47205 12.6805C5.8587 12.7042 5.58324 13.1199 5.32161 13.6007C5.19247 13.8381 4.37675 15.664 3.89747 16.0734C3.07105 14.8534 2.55118 13.4098 2.44764 11.8541C2.51538 11.8359 2.58251 11.8106 2.65066 11.7767C2.91732 11.6443 3.10415 11.4052 3.39432 11.3106C3.67099 11.2205 4.02843 11.3004 4.31111 11.3281C4.59238 11.3556 4.87804 11.3848 5.15955 11.3464C5.72151 11.2697 6.01926 10.8815 6.10902 10.3396C6.16237 10.0159 6.12075 9.69043 6.13039 9.3645C6.14561 8.85665 6.47889 8.67443 6.93815 8.63123C7.80563 8.54976 9.8292 8.77965 9.87017 7.44457C9.88762 6.87349 9.20793 6.57876 8.76525 6.42634C7.90326 6.12979 6.96142 6.23333 6.07978 6.02733C5.61085 5.91774 5.21532 5.62524 4.88367 5.27953C6.44062 3.69302 8.60711 2.70686 11.0001 2.70686C11.5119 2.70686 12.0129 2.75202 12.5 2.83852C12.2509 2.88479 12.0051 2.95053 11.7659 3.04713C10.504 3.55591 10.466 4.98759 11.0175 6.06313C11.3596 6.73015 11.9136 7.28899 12.4923 7.75369C13.0525 8.20335 13.6645 8.46908 14.2857 8.81019C15.1097 9.2633 15.0102 10.4466 15.2187 11.2439C15.3945 11.9163 15.8168 12.4835 16.4823 12.7163C16.8847 12.8568 17.3573 12.7471 17.7096 13.0275C18.0122 13.2675 18.0833 13.759 18.2563 14.0893C18.4285 14.4189 18.6578 14.5576 18.9101 14.5818Z" fill="#94B4C4"/>
</g>
<defs>
<clipPath id="clip0_129_8880">
<rect width="21" height="21" fill="white" transform="translate(0.5 0.779297)"/>
</clipPath>
</defs>
</svg>
