<svg width="21" height="19" viewBox="0 0 21 19" fill="none" xmlns="http://www.w3.org/2000/svg">
<g clip-path="url(#clip0_2555_6311)">
<path d="M10.4006 -0.000244141C10.4006 -0.000244141 10.0664 3.91346 6.93399 6.69061C4.15091 8.66107 3.70521 9.70835 3.53244 11.1944C3.35842 12.6869 3.54747 15.5718 6.6811 17.5401C6.6811 17.5401 5.55434 15.1451 8.32991 13.1779C10.9765 11.3021 10.6498 9.96963 10.6097 9.84661C10.6423 9.95112 11.2695 11.9096 12.6429 13.0233C14.0513 14.1653 13.8448 16.1847 12.5127 18.0572C12.5127 18.0572 16.8444 15.6219 17.2288 12.357C17.8497 7.04116 12.4163 0.863057 10.4006 -0.000244141Z" fill="#4D4D4D"/>
</g>
<defs>
<clipPath id="clip0_2555_6311">
<rect width="20.7661" height="18.0575" fill="white"/>
</clipPath>
</defs>
</svg>
